<svg width="193" height="262" viewBox="0 0 193 262" fill="none" xmlns="http://www.w3.org/2000/svg">
<path fill-rule="evenodd" clip-rule="evenodd" d="M36.7478 205.305C27.6304 202.364 19.5346 197.148 13.1289 190.326C12.8329 196.41 15.2326 202.452 19.8504 206.669L14.4518 216.019C14.1143 216.604 13.5047 216.979 12.8307 217.016L8.45548 217.259C7.92148 217.289 7.43847 217.586 7.17105 218.049C6.73348 218.807 6.99316 219.776 7.75105 220.214L9.22838 221.067C10.185 221.619 10.5127 222.842 9.96043 223.799L9.73956 224.181L7.21901 224.181C5.65265 224.18 4.69367 225.899 5.51673 227.231L6.78911 229.292L6.66997 229.498C6.11769 230.455 4.89451 230.782 3.93792 230.23L2.57495 229.443C1.7539 228.969 0.704021 229.25 0.229986 230.072C-0.0597116 230.573 -0.0767485 231.187 0.184682 231.704L2.12963 235.551C2.43421 236.154 2.41436 236.869 2.07684 237.454L0.481254 240.217C-0.305395 241.58 0.161437 243.322 1.52395 244.109C2.88647 244.895 4.62871 244.428 5.41536 243.066C6.20201 241.703 7.94425 241.237 9.30677 242.023C10.6693 242.81 12.4115 242.343 13.1982 240.981L30.0671 211.763C33.5206 212.405 37.0483 212.147 40.3196 211.077C38.8553 209.357 37.6453 207.414 36.7478 205.305Z" fill="white"/>
<path fill-rule="evenodd" clip-rule="evenodd" d="M62.0303 207.422C59.3949 207.803 56.7002 208 53.9594 208C48.6027 208 43.4217 207.248 38.5161 205.843C41.6993 210.819 46.7741 214.468 52.7263 215.777L52.7263 227.66C52.7263 228.335 52.3857 228.965 51.8208 229.334L47.7351 232.006C47.2465 232.325 46.952 232.87 46.952 233.453C46.952 234.408 47.7263 235.183 48.6815 235.183H50.7263C51.8308 235.183 52.7263 236.078 52.7263 237.183V237.848L50.0592 239.386C48.7025 240.169 48.7313 242.137 50.1105 242.88L52.7263 244.288V244.731C52.7263 245.836 51.8308 246.731 50.7263 246.731H48.8256C47.7909 246.731 46.952 247.57 46.952 248.605C46.952 249.237 47.271 249.827 47.8003 250.173L51.8208 252.802C52.3857 253.171 52.7263 253.801 52.7263 254.476L52.7263 258.058C52.7263 259.775 54.1183 261.167 55.8355 261.167C57.5526 261.167 58.9447 259.775 58.9447 258.058C58.9447 256.34 60.3367 254.948 62.0539 254.948C63.771 254.948 65.1631 253.556 65.1631 251.839L65.1631 215.016C66.7691 214.449 68.292 213.705 69.7087 212.808C66.8147 211.506 64.2133 209.669 62.0303 207.422Z" fill="white"/>
<path fill-rule="evenodd" clip-rule="evenodd" d="M101.351 199.684C98.5378 200.54 95.5524 201 92.4595 201C89.3104 201 86.2727 200.523 83.415 199.637C77.7199 203.166 71.345 205.702 64.532 207.004C70.8156 212.142 79.389 213.863 87.2602 211.366L93.6766 222.479C94.0141 223.064 94.034 223.78 93.7294 224.382L91.3297 229.128C91.0471 229.687 91.0655 230.351 91.3787 230.894C91.8913 231.781 93.0265 232.086 93.9143 231.573L95.9416 230.403C96.8982 229.85 98.1213 230.178 98.6736 231.135L99.1037 231.88L97.3191 234.968C96.5355 236.325 97.5445 238.014 99.1102 237.968L102.56 237.866L102.871 238.404C103.423 239.361 103.095 240.584 102.139 241.136L100.236 242.235C99.2794 242.787 98.957 244.02 99.5093 244.976C99.8468 245.561 100.459 245.941 101.133 245.978L106.366 246.269C107.04 246.306 107.649 246.681 107.987 247.266L109.949 250.663C110.87 252.259 112.911 252.806 114.507 251.885C116.103 250.963 116.65 248.923 115.728 247.327C114.807 245.731 115.354 243.69 116.95 242.768C118.546 241.847 119.093 239.806 118.171 238.21L98.4113 203.985C99.5522 202.651 100.535 201.207 101.351 199.684Z" fill="white"/>
<path fill-rule="evenodd" clip-rule="evenodd" d="M120.701 175.581C114.887 182.46 106.466 187.065 96.9629 187.873C93.3996 192.14 89.213 195.868 84.5432 198.919C94.7754 201.076 105.558 197.684 112.698 189.864L126.541 197.856C127.126 198.194 127.501 198.804 127.538 199.478L127.922 206.384C127.959 207.058 128.334 207.668 128.919 208.006L129.288 208.219C130.244 208.771 131.467 208.443 132.02 207.487L133.82 204.368C134.372 203.412 135.596 203.084 136.552 203.636L137.858 204.39L137.857 209.578C137.856 211.144 139.575 212.103 140.908 211.28L145.2 208.629L146.253 209.237C147.21 209.789 147.537 211.012 146.985 211.969L145.185 215.087C144.632 216.044 144.96 217.267 145.917 217.819L146.539 218.179C147.124 218.516 147.839 218.536 148.441 218.232L154.615 215.11C155.217 214.806 155.933 214.826 156.517 215.163L160.977 217.738C162.89 218.843 165.337 218.187 166.441 216.274L166.534 216.113C167.639 214.2 166.983 211.754 165.07 210.649L164.909 210.556C162.996 209.452 162.341 207.006 163.445 205.092L163.538 204.932C164.643 203.019 163.987 200.572 162.074 199.468L120.701 175.581Z" fill="white"/>
<path fill-rule="evenodd" clip-rule="evenodd" d="M40.9595 14C38.7503 14 36.9595 15.7909 36.9595 18V103.902C17.1512 110.903 2.95947 129.794 2.95947 152C2.95947 180.167 25.7929 203 53.9595 203C82.126 203 104.959 180.167 104.959 152C104.959 127.61 87.8386 107.219 64.9595 102.189V74.0819C64.9595 73.4068 65.3 72.7774 65.865 72.4079L77.054 65.0921C77.619 64.7226 77.9595 64.0932 77.9595 63.4181V60.5C77.9595 59.3954 77.064 58.5 75.9595 58.5H66.9595C65.8549 58.5 64.9595 57.6046 64.9595 56.5V52.5L74.8523 46.7926C76.209 46.0099 76.1802 44.0419 74.801 43.2993L64.9595 38V34.5C64.9595 33.3954 65.8549 32.5 66.9595 32.5H75.9595C77.064 32.5 77.9595 31.6046 77.9595 30.5V27.0819C77.9595 26.4068 77.619 25.7774 77.054 25.4079L65.865 18.0921C65.3 17.7226 64.9595 17.0932 64.9595 16.4181V4C64.9595 1.79086 63.1686 0 60.9595 0H54.9595C52.7503 0 50.9595 1.79086 50.9595 4V10C50.9595 12.2091 49.1686 14 46.9595 14H40.9595ZM63.9595 180C63.9595 185.523 59.4823 190 53.9595 190C48.4366 190 43.9595 185.523 43.9595 180C43.9595 174.477 48.4366 170 53.9595 170C59.4823 170 63.9595 174.477 63.9595 180Z" fill="white"/>
<path fill-rule="evenodd" clip-rule="evenodd" d="M123.92 131.379C123.395 143.719 117.73 154.728 109.011 162.32C107.411 170.905 103.854 178.801 98.8184 185.527C99.5481 185.381 100.278 185.211 101.007 185.015C116.902 180.756 127.201 166.038 126.483 150.249L144.461 145.432C145.113 145.257 145.809 145.423 146.312 145.873L152.509 151.418C153.012 151.869 153.709 152.035 154.361 151.86L155.294 151.61C156.361 151.324 156.994 150.227 156.708 149.16L155.473 144.552C155.187 143.485 155.821 142.388 156.888 142.102L158.866 141.572L163.488 146.197C164.595 147.305 166.489 146.768 166.849 145.244L168.315 139.04L169.968 138.598C171.035 138.312 172.132 138.945 172.417 140.012L173.652 144.62C173.938 145.687 175.035 146.32 176.102 146.034L177.361 145.697C178.013 145.522 178.533 145.03 178.743 144.389L181.338 136.488C181.548 135.847 182.068 135.355 182.72 135.181L189.216 133.44C191.35 132.868 192.616 130.675 192.045 128.541L191.67 127.145C191.099 125.011 188.905 123.745 186.771 124.316L185.375 124.69C183.241 125.262 181.048 123.996 180.476 121.862L180.102 120.466C179.53 118.332 177.337 117.066 175.203 117.637L123.92 131.379Z" fill="white"/>
<path fill-rule="evenodd" clip-rule="evenodd" d="M68.9595 98.0313V90.1237C78.2682 87.7289 88.2505 88.6334 97.0504 92.8372L145.618 44.2692C147.18 42.7071 149.713 42.7071 151.275 44.2692L153.622 46.6161C155.184 48.1781 157.717 48.1782 159.279 46.6161L161.626 44.2692C163.188 42.7071 165.72 42.7071 167.283 44.2692L169.629 46.6161C171.191 48.1782 171.191 50.7108 169.629 52.2729L163.218 58.6841C162.741 59.1614 162.537 59.8473 162.675 60.508L164.804 70.6815C164.942 71.3422 164.738 72.0281 164.261 72.5054L162.724 74.0422C161.943 74.8233 160.677 74.8233 159.896 74.0422L155.292 69.4387C154.511 68.6576 153.245 68.6576 152.464 69.4387L150.734 71.1687L153.133 79.1666C153.583 80.6669 152.212 82.0789 150.699 81.673L142.444 79.4583L140.428 81.4742C139.647 82.2552 139.647 83.5216 140.428 84.3026L145.032 88.9062C145.813 89.6872 145.813 90.9536 145.032 91.7346L143.781 92.9855C143.303 93.4629 142.618 93.6672 141.957 93.5289L131.783 91.3996C131.123 91.2613 130.437 91.4656 129.959 91.9429L114.037 107.865C123.936 123.343 122.473 143.986 109.649 157.937C109.854 155.986 109.96 154.005 109.96 152C109.96 126.267 92.6037 104.589 68.9595 98.0313Z" fill="white"/>
</svg>
