<svg width="212" height="258" viewBox="0 0 212 258" fill="none" xmlns="http://www.w3.org/2000/svg">
<path fill-rule="evenodd" clip-rule="evenodd" d="M19.6285 78.3143C12.1168 86.5485 8.45694 95.2295 8.39865 103.619C8.3403 112.019 11.8948 119.861 18.3061 126.387C24.9088 133.107 34.0489 135.464 42.3839 134.488C50.6835 133.515 58.5058 129.19 62.316 122.134C62.8408 121.162 62.4784 119.949 61.5065 119.424C60.5346 118.899 59.3212 119.262 58.7964 120.233C55.7535 125.868 49.2663 129.654 41.9184 130.515C34.6061 131.372 26.761 129.285 21.1594 123.583C15.3665 117.687 12.3487 110.825 12.3986 103.647C12.4485 96.4595 15.5774 88.6901 22.5836 81.0101C29.4213 73.5148 40.3449 69.1711 51.4257 72.9005C62.5296 76.6377 74.4583 88.7079 82.6674 115.515C90.8884 142.361 93.9985 175.634 95.0395 202.291C95.5593 215.6 95.5621 227.222 95.435 235.516C95.3714 239.662 95.2754 242.975 95.1954 245.248C95.1554 246.385 95.1194 247.263 95.0935 247.854C95.0806 248.15 95.0701 248.374 95.0629 248.524L95.0547 248.693L95.0526 248.734L95.0521 248.744L95.052 248.747C95.052 248.747 95.052 248.747 97.0493 248.85L95.052 248.747C94.9949 249.85 95.8428 250.791 96.9459 250.848C98.049 250.905 98.9895 250.057 99.0466 248.954L97.0493 248.85C99.0466 248.954 99.0467 248.953 99.0467 248.952L99.0469 248.949L99.0475 248.937L99.0498 248.892L99.0584 248.716C99.0658 248.56 99.0765 248.331 99.0897 248.029C99.1161 247.427 99.1526 246.538 99.193 245.389C99.2738 243.091 99.3705 239.752 99.4345 235.577C99.5625 227.228 99.5596 215.532 99.0365 202.135C97.9917 175.38 94.8671 141.693 86.4921 114.344C78.1053 86.9565 65.5562 73.4359 52.7017 69.1095C39.8241 64.7753 27.3088 69.8953 19.6285 78.3143ZM168.944 93.0136C183.741 91.6359 194.447 100.448 198.707 111.758C202.95 123.025 200.884 136.991 190.105 146.092C184.845 150.532 179.876 152.663 175.321 153.235C170.766 153.806 166.791 152.797 163.551 151.228C160.328 149.666 157.816 147.544 156.12 145.834C155.269 144.975 154.612 144.209 154.163 143.651C153.939 143.372 153.765 143.144 153.645 142.981C153.585 142.9 153.539 142.834 153.505 142.787C153.489 142.764 153.475 142.745 153.465 142.731L153.453 142.713L153.449 142.706L153.447 142.704C153.446 142.703 153.446 142.702 154.953 141.672L153.446 142.702C152.822 141.79 153.056 140.546 153.968 139.922C154.88 139.299 156.123 139.533 156.747 140.444L156.748 140.445L156.748 140.445L156.768 140.473C156.787 140.501 156.819 140.545 156.864 140.606C156.954 140.727 157.093 140.911 157.28 141.144C157.656 141.611 158.221 142.271 158.961 143.017C160.449 144.517 162.6 146.322 165.295 147.628C167.975 148.926 171.173 149.724 174.823 149.266C178.473 148.808 182.741 147.074 187.524 143.035C196.83 135.178 198.697 123.082 194.963 113.168C191.246 103.297 182.067 95.809 169.315 96.9964C156.494 98.1902 148.208 106.35 142.334 118.352C136.425 130.422 133.144 146.028 130.268 161.413C127.425 176.623 125.845 197.752 124.978 215.151C124.546 223.835 124.292 231.563 124.147 237.12C124.074 239.898 124.028 242.133 124.001 243.672C123.987 244.441 123.978 245.037 123.972 245.44C123.969 245.641 123.967 245.794 123.966 245.897L123.964 246.012L123.964 246.041L123.964 246.048L123.964 246.05C123.964 246.05 123.964 246.05 121.964 246.028C119.964 246.006 119.964 246.006 119.964 246.005L119.964 246.003L119.964 245.995L119.965 245.965L119.966 245.846L119.968 245.675L119.972 245.383C119.978 244.975 119.987 244.375 120.001 243.6C120.029 242.051 120.075 239.806 120.148 237.015C120.294 231.435 120.549 223.675 120.983 214.952C121.85 197.537 123.439 176.174 126.336 160.678C129.2 145.357 132.558 129.225 138.741 116.593C144.958 103.892 154.216 94.385 168.944 93.0136ZM121.964 246.028L123.964 246.05C123.952 247.155 123.047 248.04 121.942 248.028C120.838 248.016 119.952 247.111 119.964 246.006L121.964 246.028ZM66.5206 154.793C66.5206 154.793 67.1443 158.783 65.2078 160.34C63.2712 161.898 59.5076 160.433 59.5076 160.433C59.5076 160.433 58.8839 156.443 60.8205 154.886C62.7571 153.328 66.5206 154.793 66.5206 154.793ZM141.577 215.811C141.577 215.811 141.982 212.09 139.96 210.208C137.939 208.327 134.256 208.998 134.256 208.998C134.256 208.998 133.851 212.719 135.873 214.6C137.894 216.482 141.577 215.811 141.577 215.811ZM146.924 230.414C145.549 232.143 143.023 232.421 143.023 232.421C143.023 232.421 142.726 229.897 144.101 228.168C145.476 226.439 148.002 226.16 148.002 226.16C148.002 226.16 148.3 228.685 146.924 230.414ZM116.91 86.9679C116.91 86.9679 122.34 85.9681 124.906 82.0373C127.473 78.1065 126.204 72.7332 126.204 72.7332C126.204 72.7332 120.774 73.733 118.208 77.6638C115.641 81.5946 116.91 86.9679 116.91 86.9679ZM97.2792 94.1628C96.0668 96.0197 95.6214 98.0344 95.2938 99.516C94.9279 101.171 94.7091 102.16 93.7331 101.523C91.8833 100.316 90.2541 95.6521 92.8205 91.7213C95.3869 87.7905 99.8517 86.517 101.701 87.7247C101.918 90.051 101.249 90.5152 100.143 91.282C99.3555 91.8281 98.3468 92.5277 97.2792 94.1628ZM54.919 107.299C55.7129 107.835 56.7924 108.564 57.6014 109.707C58.3137 110.713 58.4905 111.467 58.6284 112.056C58.8221 112.883 58.9394 113.384 60.3554 113.796C61.4936 112.991 61.7817 110.074 60.0692 107.655C58.3567 105.236 55.2408 105.111 54.1026 105.917C53.5021 106.342 54.0324 106.7 54.919 107.299Z" fill="url(#paint0_linear)"/>
<path d="M131.233 178.378C121.242 184.33 112.708 180.158 105.704 179.248C116.854 185.742 110.846 191.324 131.118 187.929C135.865 184.977 142.684 177.312 141.803 167.852C139.546 170.573 141.225 172.426 131.233 178.378Z" fill="url(#paint1_linear)"/>
<path d="M142.301 167.806C142.186 177.358 136.954 185.88 129.671 188.566C129.671 188.566 137.232 188.867 140.577 187.049C142.835 184.328 147.084 181.421 142.301 167.806Z" fill="#C082FF"/>
<path d="M133.246 190.735C117.689 194.704 106.28 183.878 105.704 179.248C105.704 179.248 123.966 190.409 140.577 187.049C140.577 187.049 136.784 189.453 133.246 190.735Z" fill="url(#paint2_linear)"/>
<path d="M180.33 53.9871C179.3 46.6968 174.153 42.2518 171.892 41.583C169.467 41.8088 164.09 43.8163 162.095 49.3539C169.272 40.1488 180.493 58.186 181.182 63.1406L180.33 53.9871Z" fill="url(#paint3_linear)"/>
<path d="M165.047 54.1007C167.308 54.7695 160.057 49.042 163.947 47.6754C172.179 44.3977 180.699 60.4044 180.956 63.1649C179.578 60.9485 173.304 53.7327 164.781 56.6367C164.471 55.3718 164.205 54.3824 163.981 53.6194C162.788 52.3339 162.69 49.2326 163.981 53.6194C164.272 53.9338 164.629 54.1396 165.047 54.1007Z" fill="url(#paint4_linear)"/>
<path d="M157.648 44.7466C155.973 46.6125 153.04 49.1928 154.685 56.07C156.33 62.9471 167.673 64.4016 169.506 64.2309C163.195 55.7796 166.112 43.9586 171.892 41.5832C171.852 41.1475 164.612 39.2619 157.648 44.7466Z" fill="url(#paint5_linear)"/>
<path d="M161.003 42.9881C161.323 42.6769 161.642 42.455 161.944 42.3377C161.611 42.532 161.298 42.7496 161.003 42.9881C157.72 46.1814 154.356 58.7781 169.506 64.2309C156.81 61.5825 154.955 47.8803 161.003 42.9881Z" fill="#8D75E1"/>
<path d="M32.5788 18.6335C28.8922 21.5371 24.6566 26.1027 24.004 30.4233C23.3514 34.7439 25.1046 39.1172 26.2394 40.518C29.8353 44.9571 31.8874 44.1468 36.9259 42.0338C39.6184 40.9046 42.7589 36.7088 43.3986 33.0142C44.0383 29.3196 43.1017 27.7661 43.9629 22.8497C44.8241 17.9333 48.9393 14.9118 48.8987 14.476C48.8582 14.0403 39.5423 13.1488 32.5788 18.6335Z" fill="url(#paint6_linear)"/>
<path d="M72.9527 212.664C70.2712 214.449 66.3883 216.237 63.4304 215.74C60.4725 215.243 57.994 213.166 57.3225 212.126C55.1946 208.832 56.1614 207.667 58.6159 204.831C59.9275 203.316 63.3353 202.163 65.8821 202.535C68.4289 202.907 69.2423 203.849 72.6334 204.337C76.0246 204.826 78.8745 202.786 79.1501 202.906C79.4257 203.025 78.0178 209.293 72.9527 212.664Z" fill="url(#paint7_linear)"/>
<defs>
<linearGradient id="paint0_linear" x1="102.253" y1="61.9101" x2="119.651" y2="248.755" gradientUnits="userSpaceOnUse">
<stop stop-color="#CEA5FC"/>
<stop offset="1" stop-color="#777CF9"/>
</linearGradient>
<linearGradient id="paint1_linear" x1="123.383" y1="169.568" x2="125.169" y2="188.751" gradientUnits="userSpaceOnUse">
<stop stop-color="#7A34F8"/>
<stop offset="1" stop-color="#C082FF"/>
</linearGradient>
<linearGradient id="paint2_linear" x1="109.016" y1="182.455" x2="134.384" y2="190.638" gradientUnits="userSpaceOnUse">
<stop stop-color="#8A85FA"/>
<stop offset="1" stop-color="#7A34F8"/>
</linearGradient>
<linearGradient id="paint3_linear" x1="171.835" y1="41.5878" x2="173.905" y2="63.8177" gradientUnits="userSpaceOnUse">
<stop stop-color="#9A8DFA"/>
<stop offset="1" stop-color="#797DF9"/>
</linearGradient>
<linearGradient id="paint4_linear" x1="171.332" y1="41.9662" x2="173.402" y2="64.1961" gradientUnits="userSpaceOnUse">
<stop stop-color="#9A8DFA"/>
<stop offset="1" stop-color="#797DF9"/>
</linearGradient>
<linearGradient id="paint5_linear" x1="158.277" y1="42.7613" x2="160.832" y2="70.1969" gradientUnits="userSpaceOnUse">
<stop stop-color="#A592FB"/>
<stop offset="1" stop-color="#BA90F9"/>
</linearGradient>
<linearGradient id="paint6_linear" x1="35.2833" y1="15.6543" x2="37.8379" y2="43.09" gradientUnits="userSpaceOnUse">
<stop stop-color="#A592FB"/>
<stop offset="1" stop-color="#BA90F9"/>
</linearGradient>
<linearGradient id="paint7_linear" x1="75.4738" y1="211.536" x2="58.1216" y2="204.011" gradientUnits="userSpaceOnUse">
<stop stop-color="#797DF9"/>
<stop offset="1" stop-color="#866FFA"/>
</linearGradient>
</defs>
</svg>
