<svg width="157" height="232" viewBox="0 0 157 232" fill="none" xmlns="http://www.w3.org/2000/svg">
<path fill-rule="evenodd" clip-rule="evenodd" d="M114.678 21.2972C114.019 22.0314 113.654 22.9836 113.654 23.9707V28.6847C113.654 31.4353 117.047 32.7358 118.885 30.6899L132.654 15.3678V229.012C132.654 230.392 133.773 231.512 135.154 231.512C136.534 231.512 137.654 230.392 137.654 229.012V15.3678L151.422 30.6899C153.261 32.7358 156.654 31.4353 156.654 28.6847V23.9707C156.654 22.9836 156.289 22.0314 155.629 21.2972L137.385 0.994824C136.193 -0.331608 134.114 -0.331608 132.922 0.994824L114.678 21.2972ZM64.4078 61.5892L57.6536 53.9637V229.012C57.6536 230.392 56.5343 231.512 55.1536 231.512C53.7729 231.512 52.6536 230.392 52.6536 229.012V53.9637L45.8993 61.5892C44.0685 63.6562 40.6536 62.3612 40.6536 59.6001V59.0196C40.6536 58.2866 40.9219 57.5791 41.4078 57.0304L52.9078 44.047C54.1016 42.6992 56.2055 42.6992 57.3993 44.047L68.8993 57.0304C69.3853 57.5791 69.6536 58.2866 69.6536 59.0196V59.6001C69.6536 62.3612 66.2386 63.6562 64.4078 61.5892ZM22.4844 106.726L16.6536 100.199V229.012C16.6536 230.392 15.5343 231.512 14.1536 231.512C12.7729 231.512 11.6536 230.392 11.6536 229.012V100.199L5.82277 106.726C4.01123 108.753 0.653564 107.472 0.653564 104.753C0.653564 104.025 0.921573 103.323 1.40643 102.78L11.9163 91.0158C13.1091 89.6808 15.1981 89.6808 16.3908 91.0158L26.9007 102.78C27.3856 103.323 27.6536 104.025 27.6536 104.753C27.6536 107.472 24.2959 108.753 22.4844 106.726ZM97.6536 74.9637L104.408 82.5892C106.239 84.6562 109.654 83.3612 109.654 80.6001V80.0196C109.654 79.2866 109.385 78.5791 108.899 78.0304L97.3993 65.047C96.2055 63.6992 94.1016 63.6992 92.9078 65.047L81.4078 78.0304C80.9219 78.5791 80.6536 79.2866 80.6536 80.0196V80.6001C80.6536 83.3612 84.0685 84.6562 85.8993 82.5892L92.6536 74.9637V229.012C92.6536 230.392 93.7729 231.512 95.1536 231.512C96.5343 231.512 97.6536 230.392 97.6536 229.012V74.9637Z" fill="url(#paint0_linear)"/>
<defs>
<linearGradient id="paint0_linear" x1="78.6536" y1="0" x2="78.6536" y2="231.512" gradientUnits="userSpaceOnUse">
<stop stop-color="#CDA6FC"/>
<stop offset="1" stop-color="#9145F5"/>
</linearGradient>
</defs>
</svg>
