<svg width="215" height="215" viewBox="0 0 215 215" fill="none" xmlns="http://www.w3.org/2000/svg">
<circle cx="107.5" cy="107.5" r="107.5" fill="#7A34F8"/>
<rect x="78" y="116" width="5" height="71" fill="white"/>
<rect x="105" y="58" width="5" height="129" fill="white"/>
<rect x="132" y="138" width="5" height="49" fill="white"/>
<rect x="105" y="87" width="5" height="49" fill="white"/>
<rect x="163.593" y="111.26" width="5" height="44.3661" transform="rotate(45 163.593 111.26)" fill="white"/>
<rect x="152.06" y="74.751" width="5" height="44.3661" transform="rotate(-7.03006 152.06 74.751)" fill="white"/>
<rect x="126.731" y="91" width="5" height="29.006" transform="rotate(45 126.731 91)" fill="white"/>
<rect x="126.731" y="51" width="5" height="29.006" transform="rotate(45 126.731 51)" fill="white"/>
<rect x="86.5103" y="30" width="5" height="29.006" transform="rotate(45 86.5103 30)" fill="white"/>
<rect x="59" y="99.6567" width="5" height="29.006" transform="rotate(-45 59 99.6567)" fill="white"/>
<rect x="39.9928" y="55.2495" width="5" height="54.1709" transform="rotate(-25 39.9928 55.2495)" fill="white"/>
<rect x="65.7017" y="51.2373" width="5" height="57.7121" transform="rotate(-45 65.7017 51.2373)" fill="white"/>
<path d="M53.0965 106.042C60.7653 109.173 68.8529 111.336 77.9161 113.647C66.0968 113.312 55.3784 118.97 45.5475 108.109C43.611 105.972 41.7248 103.222 39.8909 99.6735C43.9457 102 48.3671 104.113 53.0965 106.042Z" fill="white"/>
<path d="M59.9894 99.4014C69.0711 101.412 71.6068 106.929 74.4036 110.415L74.4042 110.417C75.4093 111.67 76.4891 112.779 77.9637 113.618C73.1896 112.411 68.4726 111.079 63.8976 109.604C62.7042 105.782 61.1214 102.13 58.5921 99.1446C59.0439 99.2125 59.5063 99.2963 59.9894 99.4014ZM74.4063 110.425C74.4069 110.427 74.4074 110.429 74.4099 110.43L74.4063 110.425Z" fill="white"/>
<path d="M58.5933 99.1443C61.1226 102.13 62.7054 105.782 63.8988 109.604C54.9755 106.726 46.6103 103.302 39.54 99.1503C49.0315 100.534 52.6158 98.2529 58.5933 99.1443Z" fill="white"/>
<path d="M137.411 100.042C129.743 103.173 121.655 105.336 112.592 107.647C124.411 107.312 135.129 112.97 144.96 102.109C146.897 99.9717 148.783 97.2219 150.617 93.6735C146.562 96.0001 142.141 98.1132 137.411 100.042Z" fill="white"/>
<path d="M130.518 93.4014C121.437 95.4118 118.901 100.929 116.104 104.415L116.104 104.417C115.098 105.67 114.019 106.779 112.544 107.618C117.318 106.411 122.035 105.079 126.61 103.604C127.804 99.7825 129.386 96.1303 131.916 93.1446C131.464 93.2125 131.002 93.2963 130.518 93.4014ZM116.101 104.425C116.101 104.427 116.1 104.429 116.098 104.43L116.101 104.425Z" fill="white"/>
<path d="M131.914 93.1443C129.385 96.1301 127.802 99.7822 126.609 103.604C135.532 100.726 143.898 97.3022 150.968 93.1503C141.476 94.5338 137.892 92.2529 131.914 93.1443Z" fill="white"/>
<path d="M174.536 108.435C169.101 110.655 163.369 112.188 156.946 113.825C165.322 113.588 172.919 117.598 179.886 109.901C181.259 108.386 182.596 106.437 183.895 103.922C181.022 105.571 177.888 107.068 174.536 108.435Z" fill="white"/>
<path d="M169.651 103.729C163.214 105.154 161.417 109.065 159.435 111.535L159.435 111.536C158.722 112.424 157.957 113.21 156.912 113.805C160.295 112.949 163.639 112.005 166.881 110.96C167.727 108.252 168.849 105.663 170.641 103.547C170.321 103.595 169.993 103.655 169.651 103.729ZM159.433 111.542C159.433 111.543 159.432 111.545 159.431 111.546L159.433 111.542Z" fill="white"/>
<path d="M170.64 103.547C168.848 105.663 167.726 108.252 166.88 110.96C173.204 108.92 179.133 106.494 184.144 103.551C177.417 104.532 174.877 102.915 170.64 103.547Z" fill="white"/>
<path d="M34.4865 57.0568C39.9242 59.27 45.0943 62.1813 50.8317 65.5015C44.6767 59.8144 42.049 51.6363 31.6858 52.2685C29.6452 52.3923 27.3268 52.851 24.6393 53.7404C27.8468 54.5706 31.1344 55.6907 34.4865 57.0568Z" fill="white"/>
<path d="M34.6891 63.8372C40.2872 67.3185 44.3062 65.7791 47.4506 65.3986L47.4518 65.3979C48.582 65.261 49.6786 65.2342 50.8417 65.5396C47.8242 63.7858 44.7739 62.1235 41.7251 60.6037C39.2266 61.9489 36.6149 63.0153 33.8538 63.275C34.1164 63.4644 34.3922 63.6511 34.6891 63.8372ZM47.4568 65.395C47.458 65.3943 47.4592 65.3936 47.4612 65.3941L47.4568 65.395Z" fill="white"/>
<path d="M33.8543 63.2756C36.6154 63.0159 39.2271 61.9495 41.7256 60.6042C35.7776 57.6412 29.8424 55.231 24.2024 53.8315C29.6975 57.8336 30.3836 60.7654 33.8543 63.2756Z" fill="white"/>
<path d="M130.95 44.6429C128.737 50.0805 125.826 55.2507 122.506 60.988C128.193 54.8331 136.371 52.2054 135.739 41.8421C135.615 39.8015 135.156 37.4832 134.267 34.7957C133.436 38.0032 132.316 41.2907 130.95 44.6429Z" fill="white"/>
<path d="M124.17 44.8456C120.689 50.4438 122.228 54.4627 122.609 57.6071L122.609 57.6084C122.746 58.7386 122.773 59.8351 122.468 60.9983C124.221 57.9808 125.884 54.9305 127.404 51.8816C126.058 49.3832 124.992 46.7715 124.732 44.0103C124.543 44.2729 124.356 44.5487 124.17 44.8456ZM122.612 57.6133C122.613 57.6146 122.614 57.6158 122.613 57.6178L122.612 57.6133Z" fill="white"/>
<path d="M124.731 44.0108C124.991 46.7719 126.058 49.3836 127.403 51.8821C130.366 45.9341 132.776 39.9989 134.176 34.3589C130.173 39.854 127.242 40.5401 124.731 44.0108Z" fill="white"/>
<path d="M64.1466 51.0432C68.8914 54.5005 73.2085 58.5709 77.9777 63.1748C73.3731 56.1732 72.7917 47.6029 62.5811 45.7214C60.5707 45.3502 58.2101 45.2373 55.3875 45.4534C58.3008 47.0315 61.222 48.9102 64.1466 51.0432Z" fill="white"/>
<path d="M62.7107 57.6728C67.306 62.3996 71.5773 61.873 74.7209 62.2608L74.7223 62.2604C75.8522 62.3997 76.9229 62.6376 77.9783 63.2141C75.4719 60.7854 72.9115 58.4376 70.3182 56.2284C67.5694 56.9326 64.7778 57.3388 62.0353 56.926C62.2446 57.1731 62.4674 57.4207 62.7107 57.6728ZM74.7277 62.2588C74.7291 62.2584 74.7305 62.258 74.7323 62.259L74.7277 62.2588Z" fill="white"/>
<path d="M62.0357 56.9269C64.7781 57.3396 67.5698 56.9334 70.3186 56.2292C65.259 51.9213 60.0787 48.153 54.9416 45.4367C59.3115 50.6441 59.2715 53.6548 62.0357 56.9269Z" fill="white"/>
<path d="M90.3141 27.5926C87.0242 31.4088 83.2397 34.8161 78.9672 38.5728C85.2791 35.125 92.6507 35.2286 94.976 26.6266C95.4345 24.9331 95.6966 22.9218 95.7096 20.4922C94.1555 22.8735 92.3437 25.2405 90.3141 27.5926Z" fill="white"/>
<path d="M84.7441 25.8995C80.3788 29.4988 80.5297 33.1893 79.9776 35.8511L79.9778 35.8523C79.7794 36.809 79.5008 37.7082 78.9337 38.5706C81.1869 36.5969 83.3747 34.5714 85.4462 32.5081C85.0366 30.1074 84.8849 27.6911 85.4303 25.3742C85.2043 25.5359 84.9768 25.7091 84.7441 25.8995ZM79.9788 35.8571C79.979 35.8583 79.9792 35.8595 79.9783 35.8609L79.9788 35.8571Z" fill="white"/>
<path d="M85.4296 25.3744C84.8842 27.6912 85.0359 30.1076 85.4455 32.5083C89.4852 28.4825 93.0718 24.3156 95.7554 20.1119C90.9947 23.4847 88.4222 23.2394 85.4296 25.3744Z" fill="white"/>
<path d="M157.985 69.2333C157.169 74.2053 155.717 79.0864 154.032 84.52C157.619 78.2861 163.962 74.5295 161.459 65.9775C160.967 64.2934 160.141 62.4407 158.885 60.361C158.801 63.2034 158.49 66.1679 157.985 69.2333Z" fill="white"/>
<path d="M152.35 70.6941C150.503 76.0419 152.557 79.112 153.474 81.6709L153.475 81.6718C153.805 82.5916 154.036 83.5041 154.002 84.5356C154.895 81.6765 155.705 78.8072 156.396 75.9663C154.795 74.1317 153.405 72.1492 152.662 69.888C152.553 70.1439 152.449 70.4102 152.35 70.6941ZM153.478 81.6754C153.479 81.6763 153.48 81.6772 153.48 81.679L153.478 81.6754Z" fill="white"/>
<path d="M152.661 69.8885C153.404 72.1497 154.794 74.1322 156.396 75.9668C157.742 70.4249 158.629 64.999 158.726 60.0127C156.423 65.3735 154.101 66.506 152.661 69.8885Z" fill="white"/>
<path d="M108.745 36.4629C111.699 38.7012 114.377 41.3215 117.333 44.2839C114.509 39.8098 114.243 34.3929 107.819 33.085C106.555 32.827 105.066 32.7279 103.281 32.8312C105.102 33.8616 106.924 35.0819 108.745 36.4629Z" fill="white"/>
<path d="M107.76 40.6306C110.606 43.6685 113.308 43.3864 115.288 43.6682L115.289 43.668C116.001 43.7692 116.674 43.932 117.333 44.3083C115.78 42.7457 114.191 41.2335 112.58 39.8084C110.836 40.2205 109.069 40.4441 107.343 40.1512C107.472 40.3097 107.61 40.4686 107.76 40.6306ZM115.292 43.667C115.293 43.6668 115.294 43.6666 115.295 43.6672L115.292 43.667Z" fill="white"/>
<path d="M107.343 40.1517C109.069 40.4445 110.836 40.221 112.58 39.8088C109.437 37.0298 106.211 34.59 103 32.8149C105.697 36.1536 105.637 38.0537 107.343 40.1517Z" fill="white"/>
<rect x="109.187" y="40.7227" width="5" height="20.723" transform="rotate(-45 109.187 40.7227)" fill="white"/>
</svg>
