<svg width="1440" height="654" viewBox="0 0 1440 654" fill="none" xmlns="http://www.w3.org/2000/svg">
<path fill-rule="evenodd" clip-rule="evenodd" d="M1445 759.434C1478.82 699.075 1483.91 643.109 1488.22 595.706C1490.68 568.6 1492.89 544.294 1500.07 523.568C1450.2 564.487 1401.63 608.085 1354.16 654H1445V759.434Z" fill="url(#paint0_linear)"/>
<path fill-rule="evenodd" clip-rule="evenodd" d="M1201.52 654.001C1202.74 652.667 1203.97 651.33 1205.21 649.991C1245.19 607.02 1286.83 579.297 1328.12 559.629C1331.43 434.496 1308.85 373.58 1286.9 314.381C1272.91 276.648 1259.18 239.613 1252.58 187.093C1205.7 337.422 1166.22 493.014 1133.19 654.001H1201.52Z" fill="url(#paint1_linear)"/>
<path fill-rule="evenodd" clip-rule="evenodd" d="M1122.53 654.001C1139.03 561.568 1144.1 442.496 1102.78 326.031C1169.11 226.99 1252.56 187.093 1252.56 187.093C1206.11 342.259 1166.14 497.875 1133.48 654.001H1122.53Z" fill="url(#paint2_linear)"/>
<path fill-rule="evenodd" clip-rule="evenodd" d="M1026.14 654.001C1020.15 608.221 1020.61 554.93 1034.37 489.738C1048.48 422.962 1073.63 370.066 1102.78 326.031C1044.72 204.77 977.267 156.343 917.515 113.443C873.296 81.695 833.293 52.974 804.431 0.000976562C845.395 218.21 912.308 436.103 1000.51 654.001H1026.14Z" fill="url(#paint3_linear)"/>
<path fill-rule="evenodd" clip-rule="evenodd" d="M906.601 654C856.098 605.085 805.454 540.253 768.17 432.344C742.255 357.331 735.404 288.223 738.337 228.197C612.461 142.264 528.737 135.66 445.991 129.132C384.369 124.271 323.29 119.453 245.747 81.9463C452.979 295.108 667.973 484.416 889.381 654H906.601Z" fill="url(#paint4_linear)"/>
<path fill-rule="evenodd" clip-rule="evenodd" d="M852.022 654C771.911 567.911 577.956 387.898 316.494 349.014C240.375 206.942 245.739 81.9463 245.739 81.9463C459.301 298.993 679.387 492.349 889.539 654H852.022Z" fill="url(#paint5_linear)"/>
<path fill-rule="evenodd" clip-rule="evenodd" d="M-3 710.893C-12.5436 714.441 -22.0713 718.184 -31.5755 722.132C-192.531 626.105 -262 498.316 -262 498.316C-6.4884 566.852 249.38 617.171 505.452 654.001H-3V710.893Z" fill="url(#paint6_linear)"/>
<path fill-rule="evenodd" clip-rule="evenodd" d="M674.181 654.001C611.625 632.457 543.434 597.333 468.475 534.618C403.787 480.458 350.551 413.239 316.519 349.013C495.426 373.569 695.408 484.952 852.027 654.001H674.181Z" fill="url(#paint7_linear)"/>
<path fill-rule="evenodd" clip-rule="evenodd" d="M502.024 654.001C244.621 617.059 -12.786 566.323 -262 498.317C-164.383 484.4 -83.9063 450.051 -7.35825 417.38C80.0715 380.064 162.376 344.935 259.237 344.935C277.76 344.935 296.805 346.221 316.512 349.013C349.519 410.587 397.713 475.375 468.468 534.618C543.389 597.361 611.571 632.475 674.12 654.001H502.024Z" fill="url(#paint8_linear)"/>
<path fill-rule="evenodd" clip-rule="evenodd" d="M1201.52 653.999C1202.74 652.666 1203.97 651.33 1205.21 649.991C1245.19 607.02 1287.94 578.553 1328.12 559.629C1321.35 593.062 1310.92 624.588 1298.12 653.999H1201.52Z" fill="url(#paint9_linear)"/>
<path fill-rule="evenodd" clip-rule="evenodd" d="M1026.15 654.001C1020.16 608.224 1020.62 554.94 1034.39 489.759C1048.49 422.962 1074.06 368.982 1102.79 326.031C1144.12 442.497 1139.04 561.569 1122.55 654.001H1026.15Z" fill="url(#paint10_linear)"/>
<path fill-rule="evenodd" clip-rule="evenodd" d="M906.606 654.001C856.106 605.085 805.466 540.247 768.184 432.344C742.269 357.331 735.418 288.224 738.351 228.217C894.097 356.439 961.831 544.618 989.479 654.001H906.606Z" fill="url(#paint11_linear)"/>
<path fill-rule="evenodd" clip-rule="evenodd" d="M989.467 654C961.821 544.611 894.086 356.419 738.338 228.195C742.235 146.009 771.124 52.5537 804.432 0C853.001 224.316 917.915 442.597 1001.53 654H989.467Z" fill="url(#paint12_linear)"/>
<path fill-rule="evenodd" clip-rule="evenodd" d="M550.331 654C355.952 625.961 168.703 591.984 -15.4022 558.576C-21.8875 557.4 -28.3689 556.223 -34.8466 555.048C130.468 592.811 303.172 626.442 483.055 654H550.331Z" fill="url(#paint13_linear)"/>
<path fill-rule="evenodd" clip-rule="evenodd" d="M1298.13 654C1310.91 624.599 1321.33 593.075 1328.11 559.629C1404.19 526.22 1473.01 523.448 1493.72 523.448C1497.84 523.448 1500.07 523.568 1500.07 523.568C1454.65 560.633 1406.37 604.404 1355.89 654H1298.13Z" fill="url(#paint14_linear)"/>
<defs>
<linearGradient id="paint0_linear" x1="1443.35" y1="638.403" x2="1123.83" y2="1032.06" gradientUnits="userSpaceOnUse">
<stop stop-color="#05E9F5"/>
<stop offset="0.00090939" stop-color="#05E9F5"/>
<stop offset="0.143672" stop-color="#05E9F5"/>
<stop offset="0.850942" stop-color="#0674E5"/>
<stop offset="1" stop-color="#0674E5"/>
</linearGradient>
<linearGradient id="paint1_linear" x1="1260.92" y1="384.487" x2="1179.46" y2="917.638" gradientUnits="userSpaceOnUse">
<stop stop-color="#11B1FF"/>
<stop offset="0.150546" stop-color="#11B1FF"/>
<stop offset="0.161174" stop-color="#11B1FF"/>
<stop offset="0.891617" stop-color="#0778E8"/>
<stop offset="1" stop-color="#0778E8"/>
</linearGradient>
<linearGradient id="paint2_linear" x1="1160.47" y1="369.144" x2="1079.01" y2="902.296" gradientUnits="userSpaceOnUse">
<stop stop-color="#26CDFF"/>
<stop offset="0.848313" stop-color="#1056E7"/>
<stop offset="0.860656" stop-color="#1056E7"/>
<stop offset="1" stop-color="#1056E7"/>
</linearGradient>
<linearGradient id="paint3_linear" x1="885.748" y1="-9.04147" x2="1112.73" y2="698.102" gradientUnits="userSpaceOnUse">
<stop stop-color="#2794FF"/>
<stop offset="0.0917245" stop-color="#2794FF"/>
<stop offset="0.892275" stop-color="#1030E6"/>
<stop offset="0.906725" stop-color="#1030E6"/>
<stop offset="1" stop-color="#1030E6"/>
</linearGradient>
<linearGradient id="paint4_linear" x1="404.962" y1="125.723" x2="1006.41" y2="589.663" gradientUnits="userSpaceOnUse">
<stop stop-color="#3C3FFF"/>
<stop offset="0.575529" stop-color="#3D8CFC"/>
<stop offset="0.585917" stop-color="#3D8CFC"/>
<stop offset="1" stop-color="#3D8CFC"/>
</linearGradient>
<linearGradient id="paint5_linear" x1="315.348" y1="241.889" x2="916.8" y2="705.829" gradientUnits="userSpaceOnUse">
<stop stop-color="#60A9FF"/>
<stop offset="0.0284187" stop-color="#60A9FF"/>
<stop offset="1" stop-color="#383CFB"/>
</linearGradient>
<linearGradient id="paint6_linear" x1="-328.552" y1="557.897" x2="809.152" y2="787.478" gradientUnits="userSpaceOnUse">
<stop stop-color="#A195FB"/>
<stop offset="0.0494025" stop-color="#A195FB"/>
<stop offset="1" stop-color="#5D1FF7"/>
</linearGradient>
<linearGradient id="paint7_linear" x1="329.889" y1="370.899" x2="869.305" y2="704.823" gradientUnits="userSpaceOnUse">
<stop stop-color="#476BFD"/>
<stop offset="0.0284187" stop-color="#476BFD"/>
<stop offset="1" stop-color="#5632FA"/>
</linearGradient>
<linearGradient id="paint8_linear" x1="-140.81" y1="441.136" x2="754.553" y2="542.123" gradientUnits="userSpaceOnUse">
<stop stop-color="#9974FF"/>
<stop offset="0.812519" stop-color="#4219EE"/>
<stop offset="0.865162" stop-color="#4219EE"/>
<stop offset="1" stop-color="#4219EE"/>
</linearGradient>
<linearGradient id="paint9_linear" x1="1095.95" y1="878.329" x2="1298.76" y2="591.589" gradientUnits="userSpaceOnUse">
<stop stop-color="#0273D8"/>
<stop offset="0.120453" stop-color="#0273D8"/>
<stop offset="0.131861" stop-color="#0273D8"/>
<stop offset="0.915943" stop-color="#07DDFF"/>
<stop offset="1" stop-color="#07DDFF"/>
</linearGradient>
<linearGradient id="paint10_linear" x1="1085.53" y1="348.654" x2="1072.44" y2="750.241" gradientUnits="userSpaceOnUse">
<stop stop-color="#0B92FD"/>
<stop offset="0.0157816" stop-color="#0B92FD"/>
<stop offset="0.890108" stop-color="#1157F6"/>
<stop offset="1" stop-color="#1157F6"/>
</linearGradient>
<linearGradient id="paint11_linear" x1="734.835" y1="248.972" x2="987.479" y2="727.945" gradientUnits="userSpaceOnUse">
<stop stop-color="#2670FE"/>
<stop offset="0.01773" stop-color="#2670FE"/>
<stop offset="1" stop-color="#2732F4"/>
</linearGradient>
<linearGradient id="paint12_linear" x1="762.179" y1="62.5394" x2="897.497" y2="499.048" gradientUnits="userSpaceOnUse">
<stop stop-color="#4FC5FF"/>
<stop offset="0.10582" stop-color="#4FC5FF"/>
<stop offset="0.112194" stop-color="#4FC5FF"/>
<stop offset="1" stop-color="#2630F5"/>
</linearGradient>
<linearGradient id="paint13_linear" x1="-33.4691" y1="547.238" x2="877.614" y2="709.711" gradientUnits="userSpaceOnUse">
<stop stop-color="#BBB8FB"/>
<stop offset="0.0644731" stop-color="#BBB8FB"/>
<stop offset="1" stop-color="#6B4DFF"/>
</linearGradient>
<linearGradient id="paint14_linear" x1="1378.35" y1="585.643" x2="1058.83" y2="979.298" gradientUnits="userSpaceOnUse">
<stop stop-color="#01EEFF"/>
<stop offset="0.178819" stop-color="#01EEFF"/>
<stop offset="0.189069" stop-color="#01EEFF"/>
<stop offset="1" stop-color="#0773D8"/>
</linearGradient>
</defs>
</svg>
