<svg width="774" height="408" viewBox="0 0 774 408" fill="none" xmlns="http://www.w3.org/2000/svg">
<path d="M476.443 321.223C476.45 321.229 476.462 321.229 476.475 321.235C476.462 321.229 476.456 321.229 476.45 321.223H476.443ZM509.1 333.042C496.917 325.904 485.988 324.193 476.475 321.235C487.648 325.44 498.534 329.382 509.1 333.042ZM527.279 347.587C535.382 355.947 540.559 364.714 543.886 372.88C551.313 374.672 561.665 376.082 568.853 376.082C599.26 376.082 618.486 361.775 618.486 361.775C588.186 357.683 551.181 347.618 509.1 333.042C514.884 336.432 520.95 341.038 527.279 347.587Z" fill="url(#paint0_linear)"/>
<path d="M476.443 321.222C525.719 340.173 574.362 355.921 618.486 361.775C618.486 361.775 611.423 344.829 592.498 330.654C581.644 333.875 570.783 335.128 560.462 335.128C524.553 335.128 495.049 319.969 494.366 319.618C489.873 320.715 483.024 321.529 476.443 321.222Z" fill="url(#paint1_linear)"/>
<path d="M494.363 319.618C505.862 316.798 518.038 311.791 534.996 311.791C542.535 311.791 551.014 312.781 560.797 315.394C573.882 318.885 584.284 324.512 592.494 330.654C644.007 314.26 660.194 274.898 660.194 274.898C609.32 281.24 553.389 297.408 494.363 319.618Z" fill="url(#paint2_linear)"/>
<path d="M511.255 307.266C506.173 312.298 500.928 316.635 494.316 319.593L494.36 319.618C554.07 297.189 610.057 281.09 660.192 274.898C660.192 274.898 643.033 262.214 615.679 259.432C576.217 302.566 513.411 307.122 511.255 307.266Z" fill="url(#paint3_linear)"/>
<path d="M596.124 174.574C582.575 241.472 522.264 283.71 520.659 284.825C518.604 292.89 516.072 300.354 511.253 307.266C561.512 246.485 609.278 196.363 649.768 163.325C649.768 163.325 649.072 163.287 647.787 163.287C641.326 163.287 619.856 164.152 596.124 174.574Z" fill="url(#paint4_linear)"/>
<path d="M511.253 307.266H511.259C525.366 293.266 538.137 273.821 574.93 263.223C585.746 260.115 602.46 258.003 615.682 259.432C652.644 220.804 642.084 185.497 649.768 163.325C600.16 204.028 554.682 253.228 511.253 307.266Z" fill="url(#paint5_linear)"/>
<path d="M520.663 284.825C526.359 262.415 527.462 235.368 557.787 202.762C570.258 189.357 583.249 180.709 596.127 174.574C597.819 110.659 577.853 100.45 572.564 58.3627C550.229 129.973 533.284 205.413 520.663 284.825Z" fill="url(#paint6_linear)"/>
<path d="M525.833 101.704C552.454 176.723 517.354 255.208 516.614 256.844C519.397 266.094 521.314 275.061 520.656 284.825C532.45 208.953 550.066 133.489 572.558 58.3627C572.558 58.3627 546.526 70.8085 525.833 101.704Z" fill="url(#paint7_linear)"/>
<path d="M516.609 256.806C508.863 231.056 493.797 203.432 504.495 152.771C508.894 131.941 516.74 115.44 525.833 101.704C494.318 35.8836 453.934 38.854 432.765 0C448.852 85.6919 477.767 171.227 516.609 256.806ZM516.615 256.844V256.831C516.615 256.825 516.609 256.812 516.609 256.806C516.609 256.819 516.615 256.831 516.615 256.844Z" fill="url(#paint8_linear)"/>
<path d="M495.834 231.319C472.697 210.282 441.119 191.782 421.454 134.867C413.37 111.467 411.233 89.9095 412.148 71.1844C343.639 24.4154 315.157 52.9731 258.486 25.5623C334.483 103.734 413.827 171.622 495.834 231.319Z" fill="url(#paint9_linear)"/>
<path d="M280.555 108.873C387.46 124.772 458.187 216.304 460.186 218.36C472.883 220.904 484.702 224.42 495.832 231.319C419.578 175.946 337.596 105.965 258.484 25.5623C258.484 25.5623 256.811 64.5541 280.555 108.873Z" fill="url(#paint10_linear)"/>
<path d="M171.977 225.265C210.091 209.435 249.409 204.108 285.073 204.108C358.695 204.108 416.788 226.813 416.788 226.813L416.701 226.869C430.256 222.031 444.387 216.962 459.34 218.271C339.45 206.797 219.648 187.514 100.097 155.447C100.097 155.447 121.767 195.31 171.977 225.265ZM460.236 218.359C459.935 218.328 459.641 218.296 459.34 218.271C459.641 218.303 459.935 218.328 460.236 218.359Z" fill="url(#paint11_linear)"/>
<path d="M100.097 155.447C217.242 187.414 340.19 207.148 460.192 218.36C424.453 211.209 381.782 211.842 327.963 166.772C305.891 148.291 290.857 128.08 280.561 108.873C274.413 108.002 268.473 107.601 262.695 107.601C206.024 107.601 165.328 146.148 100.097 155.447Z" fill="url(#paint12_linear)"/>
<path d="M0 364.996C161.557 339.452 319.718 288.81 416.697 226.87C384.172 238.476 344.503 261.049 281.974 257.552C232.936 254.813 200.299 241.678 171.973 225.265C74.9819 277.699 77.0876 332.252 0 364.996Z" fill="url(#paint13_linear)"/>
<path d="M327.965 166.772C381.791 211.805 424.43 211.234 460.194 218.36C409.797 157.61 341.288 117.208 280.563 108.873C291.179 128.908 307.786 149.876 327.965 166.772Z" fill="url(#paint14_linear)"/>
<path d="M543.888 372.879C540.56 364.714 535.384 355.947 527.281 347.587C507.591 327.238 490.482 325.597 476.451 321.222C476.426 321.216 476.407 321.222 476.388 321.216C476.388 321.216 501.305 361.881 543.888 372.879Z" fill="url(#paint15_linear)"/>
<path d="M494.363 319.618C495.24 320.069 543.908 345.073 592.488 330.654C584.285 324.512 573.882 318.885 560.797 315.394C551.014 312.781 542.529 311.791 534.996 311.791C518.032 311.791 505.856 316.798 494.363 319.618Z" fill="url(#paint16_linear)"/>
<path d="M574.93 263.223C538.137 273.821 525.366 293.266 511.253 307.266C513.415 307.116 576.221 302.573 615.682 259.432C612.399 259.106 608.921 258.925 605.273 258.925C596.055 258.925 585.765 260.103 574.93 263.223Z" fill="url(#paint17_linear)"/>
<path d="M557.787 202.762C527.462 235.368 526.353 262.415 520.663 284.825C522.066 283.885 582.578 241.472 596.127 174.574C583.594 180.477 570.258 189.357 557.787 202.762Z" fill="url(#paint18_linear)"/>
<path d="M504.499 152.778C493.795 203.451 508.879 231.075 516.619 256.838C517.358 255.208 552.459 176.723 525.837 101.704C516.876 115.102 508.898 131.941 504.499 152.778Z" fill="url(#paint19_linear)"/>
<path d="M421.458 134.867C441.123 191.782 472.702 210.288 495.838 231.319C495.864 231.344 495.895 231.357 495.92 231.375C495.92 231.375 484.351 130.631 412.152 71.1904C411.237 89.9093 413.374 111.467 421.458 134.867Z" fill="url(#paint20_linear)"/>
<path d="M171.975 225.265C193.953 238.3 220.818 249.455 253.882 254.656C334.441 267.322 376.742 241.133 416.699 226.869C416.724 226.851 416.755 226.832 416.787 226.813C416.787 226.813 358.688 204.109 285.072 204.102C249.401 204.102 210.096 209.435 171.975 225.265Z" fill="url(#paint21_linear)"/>
<path d="M412.148 71.1843C484.347 130.625 495.916 231.376 495.916 231.376L495.834 231.319C504.15 238.89 511.426 246.704 516.615 256.838C479.447 174.617 451.998 88.8253 432.765 3.05176e-05C422.375 16.3939 413.364 45.547 412.148 71.1843Z" fill="url(#paint22_linear)"/>
<path d="M413.676 228.725C414.685 228.111 415.688 227.49 416.697 226.87C415.688 227.459 414.679 228.073 413.676 228.725ZM0 364.996C75.3705 407.829 136.403 409.766 181.592 401.136C316.071 377.554 362.445 261.957 413.676 228.725C296.512 300.417 152.151 339.684 0 364.996Z" fill="url(#paint23_linear)"/>
<g opacity="0.75">
<g opacity="0.75">
<g opacity="0.75">
<g opacity="0.75">
<g opacity="0.75">
<path opacity="0.75" d="M303.946 70.3319C367.873 127.096 431.844 183.09 495.64 229.502C495.815 230.492 495.866 231.382 495.866 231.382C495.866 231.382 490.426 228.242 487.061 226.588C425.44 181.241 363.655 127.316 303.946 70.3319Z" fill="url(#paint24_linear)"/>
</g>
</g>
</g>
</g>
</g>
<g opacity="0.75">
<g opacity="0.75">
<g opacity="0.75">
<g opacity="0.75">
<g opacity="0.75">
<path opacity="0.75" d="M445.811 54.8091C465.796 124.189 488.97 192.183 517.371 255.202C516.977 256.067 516.626 256.831 516.626 256.831C516.626 256.831 513.981 251.724 511.243 248.026C484.383 187.22 462.393 123.662 445.811 54.8091Z" fill="url(#paint25_linear)"/>
</g>
</g>
</g>
</g>
</g>
<g opacity="0.75">
<g opacity="0.75">
<g opacity="0.75">
<g opacity="0.75">
<g opacity="0.75">
<path opacity="0.75" d="M520.696 284.831C520.696 284.831 520.871 280.068 520.627 276.352C531.982 205.932 548.89 132.88 570.874 59.2583C571.338 59.0013 572.566 58.3496 572.566 58.3496C572.566 58.3496 572.835 60.3236 573.017 61.5895C550.582 136.985 533.474 211.741 522.212 283.678C521.398 284.33 520.696 284.831 520.696 284.831Z" fill="url(#paint26_linear)"/>
</g>
</g>
</g>
</g>
</g>
<g opacity="0.75">
<g opacity="0.75">
<g opacity="0.75">
<g opacity="0.75">
<g opacity="0.75">
<path opacity="0.75" d="M611.28 198.468C576.494 232.585 551.439 259.526 513.111 307.128C512.127 307.191 511.3 307.291 511.3 307.291C511.3 307.291 514.371 302.321 515.599 299.74C552.21 254.719 593.075 212.901 628.301 181.661" fill="url(#paint27_linear)"/>
</g>
</g>
</g>
</g>
</g>
<g opacity="0.75">
<g opacity="0.75">
<g opacity="0.75">
<g opacity="0.75">
<g opacity="0.75">
<path opacity="0.75" d="M638.204 278.282C596.849 285.414 550.343 300.103 496.042 320.439C495.647 320.251 494.381 319.662 494.381 319.662C494.381 319.662 498.787 317.475 501.638 315.457C553.207 296.462 597.714 282.074 638.204 278.282Z" fill="url(#paint28_linear)"/>
</g>
</g>
</g>
</g>
</g>
<path d="M549.26 407.334C549.26 407.334 551.566 391.717 543.883 372.879C501.3 361.881 476.384 321.216 476.384 321.216L476.44 321.222C471.383 319.643 466.72 317.725 462.49 314.435C488.779 350.206 517.97 383.689 549.26 407.334Z" fill="url(#paint29_linear)"/>
<path d="M543.888 372.879C540.56 364.714 535.384 355.947 527.281 347.587C507.59 327.239 490.482 325.597 476.451 321.222C476.426 321.216 476.407 321.222 476.388 321.216C476.388 321.216 501.305 361.881 543.888 372.879Z" fill="url(#paint30_linear)"/>
<path d="M549.244 407.334C522.29 386.221 492.674 357.062 464.316 319.154C477.991 356.498 475.07 397.213 549.244 407.334Z" fill="url(#paint31_linear)"/>
<path d="M464.32 319.154C483.86 345.28 503.325 366.312 522.119 384.103C501.357 364.256 485.765 344.09 464.915 316.14C464.051 315.569 463.681 315.313 462.49 314.435C463.142 316.002 463.75 317.575 464.32 319.154ZM528.047 389.63C526.079 387.825 524.099 385.983 522.119 384.103C524.049 385.945 526.017 387.788 528.047 389.63Z" fill="url(#paint32_linear)"/>
<g opacity="0.75">
<g opacity="0.75">
<g opacity="0.75">
<g opacity="0.75">
<g opacity="0.75">
<path opacity="0.75" d="M588.021 356.385C556.937 350.952 520.765 339.659 477.65 323.14C476.785 321.981 476.434 321.235 476.434 321.235C476.434 321.235 478.69 321.298 480.37 321.273C522.702 337.428 557.714 349.661 588.021 356.385Z" fill="url(#paint33_linear)"/>
</g>
</g>
</g>
</g>
</g>
<g opacity="0.75">
<g opacity="0.75">
<g opacity="0.75">
<g opacity="0.75">
<g opacity="0.75">
<path opacity="0.75" d="M773.411 158.411C749.541 182.319 717.605 205.832 675.963 230.147C673.989 230.555 670.955 231.632 670.955 231.632C670.955 231.632 672.635 229.589 673.606 228.486C715.036 204.359 746.84 181.053 770.616 157.384C772.095 156.719 774 155.986 774 155.986C774 155.986 773.674 157.29 773.411 158.411Z" fill="url(#paint34_linear)"/>
</g>
</g>
</g>
</g>
</g>
<path d="M739.094 187.978C718.734 203.802 696.305 217.075 671.075 231.607C706.225 220.684 743.105 228.649 763.46 187.84C767.47 179.806 770.817 169.98 773.336 157.803C763.134 168.181 751.653 178.227 739.094 187.978Z" fill="url(#paint35_linear)"/>
<path d="M712.859 173.859C687.322 187.508 684.351 206.177 678.893 218.974V218.98C676.932 223.58 674.625 227.81 670.909 231.564C684.207 223.937 697.23 215.984 709.707 207.725C710.076 195.267 711.756 182.99 716.832 171.917C715.535 172.499 714.219 173.139 712.859 173.859ZM678.893 219.005C678.893 219.011 678.893 219.018 678.887 219.024L678.893 219.005Z" fill="url(#paint36_linear)"/>
<path d="M716.828 171.916C711.752 182.99 710.073 195.266 709.703 207.725C734.037 191.607 756.24 174.323 773.95 155.942C746.658 168.056 733.999 164.227 716.828 171.916Z" fill="url(#paint37_linear)"/>
<path d="M410.359 229.22C336.167 275.237 225.715 316.234 105.826 344.065C222.356 324.519 329.581 280.438 402.946 236.891C407.521 232.961 412.077 229.552 416.689 226.876C414.583 227.628 412.478 228.418 410.359 229.22Z" fill="url(#paint38_linear)"/>
<path d="M447.622 218.491C451.745 218.04 455.925 217.921 460.18 218.359L458.72 216.705C356.998 207.098 262.777 189.802 170.956 173.145C256.88 192.772 349.202 208.821 447.622 218.491Z" fill="url(#paint39_linear)"/>
<defs>
<linearGradient id="paint0_linear" x1="485.711" y1="348.654" x2="618.028" y2="348.654" gradientUnits="userSpaceOnUse">
<stop stop-color="#00C4A5"/>
<stop offset="0.199095" stop-color="#00C4A5"/>
<stop offset="0.821742" stop-color="#36F9BA"/>
<stop offset="0.864997" stop-color="#36F9BA"/>
<stop offset="1" stop-color="#36F9BA"/>
</linearGradient>
<linearGradient id="paint1_linear" x1="618.54" y1="353.396" x2="513.404" y2="320.649" gradientUnits="userSpaceOnUse">
<stop stop-color="#27F9B5"/>
<stop offset="0.0649574" stop-color="#27F9B5"/>
<stop offset="1" stop-color="#00B5AA"/>
</linearGradient>
<linearGradient id="paint2_linear" x1="662.722" y1="291.28" x2="540.576" y2="322.741" gradientUnits="userSpaceOnUse">
<stop stop-color="#16F6E3"/>
<stop offset="0.216166" stop-color="#16F6E3"/>
<stop offset="0.245692" stop-color="#16F6E3"/>
<stop offset="0.974" stop-color="#028FBD"/>
<stop offset="1" stop-color="#028FBD"/>
</linearGradient>
<linearGradient id="paint3_linear" x1="634.012" y1="268.639" x2="495.82" y2="320.461" gradientUnits="userSpaceOnUse">
<stop stop-color="#2EF4E5"/>
<stop offset="0.0389605" stop-color="#2EF4E5"/>
<stop offset="1" stop-color="#0495B6"/>
</linearGradient>
<linearGradient id="paint4_linear" x1="611.795" y1="182.689" x2="512.123" y2="305.488" gradientUnits="userSpaceOnUse">
<stop stop-color="#01EEFF"/>
<stop offset="0.178819" stop-color="#01EEFF"/>
<stop offset="0.189069" stop-color="#01EEFF"/>
<stop offset="1" stop-color="#0773D8"/>
</linearGradient>
<linearGradient id="paint5_linear" x1="632.072" y1="199.147" x2="532.4" y2="321.946" gradientUnits="userSpaceOnUse">
<stop stop-color="#05E9F5"/>
<stop offset="0.00090939" stop-color="#05E9F5"/>
<stop offset="0.143672" stop-color="#05E9F5"/>
<stop offset="0.850942" stop-color="#0674E5"/>
<stop offset="1" stop-color="#0674E5"/>
</linearGradient>
<linearGradient id="paint6_linear" x1="575.164" y1="119.939" x2="549.755" y2="286.253" gradientUnits="userSpaceOnUse">
<stop stop-color="#11B1FF"/>
<stop offset="0.150546" stop-color="#11B1FF"/>
<stop offset="0.161174" stop-color="#11B1FF"/>
<stop offset="0.891617" stop-color="#0778E8"/>
<stop offset="1" stop-color="#0778E8"/>
</linearGradient>
<linearGradient id="paint7_linear" x1="543.83" y1="115.153" x2="518.421" y2="281.466" gradientUnits="userSpaceOnUse">
<stop stop-color="#26CDFF"/>
<stop offset="0.848313" stop-color="#1056E7"/>
<stop offset="0.860656" stop-color="#1056E7"/>
<stop offset="1" stop-color="#1056E7"/>
</linearGradient>
<linearGradient id="paint8_linear" x1="458.132" y1="-2.82073" x2="528.938" y2="217.77" gradientUnits="userSpaceOnUse">
<stop stop-color="#2794FF"/>
<stop offset="0.0917245" stop-color="#2794FF"/>
<stop offset="0.892275" stop-color="#1030E6"/>
<stop offset="0.906725" stop-color="#1030E6"/>
<stop offset="1" stop-color="#1030E6"/>
</linearGradient>
<linearGradient id="paint9_linear" x1="308.153" y1="39.2182" x2="495.773" y2="183.942" gradientUnits="userSpaceOnUse">
<stop stop-color="#3C3FFF"/>
<stop offset="0.575529" stop-color="#3D8CFC"/>
<stop offset="0.585917" stop-color="#3D8CFC"/>
<stop offset="1" stop-color="#3D8CFC"/>
</linearGradient>
<linearGradient id="paint10_linear" x1="280.198" y1="75.4556" x2="467.818" y2="220.18" gradientUnits="userSpaceOnUse">
<stop stop-color="#60A9FF"/>
<stop offset="0.0284187" stop-color="#60A9FF"/>
<stop offset="1" stop-color="#383CFB"/>
</linearGradient>
<linearGradient id="paint11_linear" x1="79.3364" y1="174.033" x2="434.238" y2="245.65" gradientUnits="userSpaceOnUse">
<stop stop-color="#A195FB"/>
<stop offset="0.0494025" stop-color="#A195FB"/>
<stop offset="1" stop-color="#5D1FF7"/>
</linearGradient>
<linearGradient id="paint12_linear" x1="137.902" y1="137.61" x2="417.206" y2="169.112" gradientUnits="userSpaceOnUse">
<stop stop-color="#9974FF"/>
<stop offset="0.812519" stop-color="#4219EE"/>
<stop offset="0.865162" stop-color="#4219EE"/>
<stop offset="1" stop-color="#4219EE"/>
</linearGradient>
<linearGradient id="paint13_linear" x1="16.9377" y1="356.964" x2="327.881" y2="213.451" gradientUnits="userSpaceOnUse">
<stop stop-color="#7F1EF2"/>
<stop offset="1e-05" stop-color="#7F1EF2"/>
<stop offset="1" stop-color="#9E39FE"/>
</linearGradient>
<linearGradient id="paint14_linear" x1="284.734" y1="115.7" x2="453.002" y2="219.866" gradientUnits="userSpaceOnUse">
<stop stop-color="#476BFD"/>
<stop offset="0.0284187" stop-color="#476BFD"/>
<stop offset="1" stop-color="#5632FA"/>
</linearGradient>
<linearGradient id="paint15_linear" x1="542.365" y1="372.862" x2="474.857" y2="313.897" gradientUnits="userSpaceOnUse">
<stop stop-color="#82FAA1"/>
<stop offset="1" stop-color="#74E1F9"/>
</linearGradient>
<linearGradient id="paint16_linear" x1="500.766" y1="323.461" x2="592.174" y2="323.461" gradientUnits="userSpaceOnUse">
<stop stop-color="#029AC5"/>
<stop offset="0.935043" stop-color="#00C3C4"/>
<stop offset="1" stop-color="#00C3C4"/>
</linearGradient>
<linearGradient id="paint17_linear" x1="516.848" y1="300.513" x2="609.568" y2="261.244" gradientUnits="userSpaceOnUse">
<stop stop-color="#0673BF"/>
<stop offset="0.125165" stop-color="#0673BF"/>
<stop offset="0.98908" stop-color="#05E9F5"/>
<stop offset="1" stop-color="#05E9F5"/>
</linearGradient>
<linearGradient id="paint18_linear" x1="523.703" y1="273.991" x2="586.97" y2="184.544" gradientUnits="userSpaceOnUse">
<stop stop-color="#0273D8"/>
<stop offset="0.120453" stop-color="#0273D8"/>
<stop offset="0.131861" stop-color="#0273D8"/>
<stop offset="0.915943" stop-color="#07DDFF"/>
<stop offset="1" stop-color="#07DDFF"/>
</linearGradient>
<linearGradient id="paint19_linear" x1="520.453" y1="108.761" x2="516.368" y2="234.034" gradientUnits="userSpaceOnUse">
<stop stop-color="#0B92FD"/>
<stop offset="0.0157816" stop-color="#0B92FD"/>
<stop offset="0.890108" stop-color="#1157F6"/>
<stop offset="1" stop-color="#1157F6"/>
</linearGradient>
<linearGradient id="paint20_linear" x1="411.055" y1="77.6649" x2="489.867" y2="227.079" gradientUnits="userSpaceOnUse">
<stop stop-color="#2670FE"/>
<stop offset="0.01773" stop-color="#2670FE"/>
<stop offset="1" stop-color="#2732F4"/>
</linearGradient>
<linearGradient id="paint21_linear" x1="195.837" y1="231.061" x2="384.427" y2="231.061" gradientUnits="userSpaceOnUse">
<stop stop-color="#7A34F8"/>
<stop offset="0.249368" stop-color="#7A34F8"/>
<stop offset="1" stop-color="#5A26E8"/>
</linearGradient>
<linearGradient id="paint22_linear" x1="419.585" y1="19.5089" x2="461.797" y2="155.676" gradientUnits="userSpaceOnUse">
<stop stop-color="#4FC5FF"/>
<stop offset="0.10582" stop-color="#4FC5FF"/>
<stop offset="0.112194" stop-color="#4FC5FF"/>
<stop offset="1" stop-color="#2630F5"/>
</linearGradient>
<linearGradient id="paint23_linear" x1="17.9069" y1="316.056" x2="345.038" y2="316.056" gradientUnits="userSpaceOnUse">
<stop stop-color="#BE6DFF"/>
<stop offset="0.0539496" stop-color="#BE6DFF"/>
<stop offset="0.769841" stop-color="#9A31FE"/>
<stop offset="0.771468" stop-color="#9A31FE"/>
<stop offset="1" stop-color="#7213F2"/>
</linearGradient>
<linearGradient id="paint24_linear" x1="305.387" y1="68.6821" x2="493.23" y2="233.318" gradientUnits="userSpaceOnUse">
<stop stop-color="#8DAFF8"/>
<stop offset="0.133006" stop-color="#8DAFF8"/>
<stop offset="1" stop-color="#2C3BFF"/>
</linearGradient>
<linearGradient id="paint25_linear" x1="440.319" y1="57.0119" x2="519.859" y2="255.534" gradientUnits="userSpaceOnUse">
<stop stop-color="#BAD4FB"/>
<stop offset="0.855905" stop-color="#2267F4"/>
<stop offset="0.95513" stop-color="#2267F4"/>
<stop offset="1" stop-color="#2267F4"/>
</linearGradient>
<linearGradient id="paint26_linear" x1="563.923" y1="57.0321" x2="528.928" y2="286.091" gradientUnits="userSpaceOnUse">
<stop stop-color="#2AAEF5"/>
<stop offset="0.473348" stop-color="#97E1F7"/>
<stop offset="0.502358" stop-color="#97E1F7"/>
<stop offset="0.887304" stop-color="#0098E3"/>
<stop offset="1" stop-color="#0098E3"/>
</linearGradient>
<linearGradient id="paint27_linear" x1="628.208" y1="181.98" x2="510.212" y2="305.404" gradientUnits="userSpaceOnUse">
<stop stop-color="#A7E6F6"/>
<stop offset="0.612934" stop-color="#A7E6F6"/>
<stop offset="0.618551" stop-color="#A7E6F6"/>
<stop offset="0.929729" stop-color="#21AFD1"/>
<stop offset="0.930975" stop-color="#21AFD1"/>
<stop offset="1" stop-color="#21AFD1"/>
</linearGradient>
<linearGradient id="paint28_linear" x1="637.698" y1="277.952" x2="495.418" y2="316.53" gradientUnits="userSpaceOnUse">
<stop stop-color="#86EECC"/>
<stop offset="1" stop-color="#4BDBD2"/>
</linearGradient>
<linearGradient id="paint29_linear" x1="556.415" y1="399.135" x2="461.119" y2="316.004" gradientUnits="userSpaceOnUse">
<stop stop-color="#8CFB73"/>
<stop offset="0.0904874" stop-color="#8CFB73"/>
<stop offset="1" stop-color="#73F385"/>
</linearGradient>
<linearGradient id="paint30_linear" x1="480.797" y1="347.048" x2="543.669" y2="347.048" gradientUnits="userSpaceOnUse">
<stop stop-color="#00D784"/>
<stop offset="0.935043" stop-color="#00F18F"/>
<stop offset="1" stop-color="#00F18F"/>
</linearGradient>
<linearGradient id="paint31_linear" x1="464.321" y1="363.246" x2="549.24" y2="363.246" gradientUnits="userSpaceOnUse">
<stop stop-color="#BCFB81"/>
<stop offset="0.0904874" stop-color="#BCFB81"/>
<stop offset="1" stop-color="#2EEE2D"/>
</linearGradient>
<linearGradient id="paint32_linear" x1="461.07" y1="316.168" x2="528.584" y2="388.218" gradientUnits="userSpaceOnUse">
<stop stop-color="#77FB8D"/>
<stop offset="0.0580924" stop-color="#77FB8D"/>
<stop offset="0.649395" stop-color="#C1FDC1"/>
<stop offset="0.895431" stop-color="#72FA8D"/>
<stop offset="0.901269" stop-color="#72FA8D"/>
<stop offset="1" stop-color="#72FA8D"/>
</linearGradient>
<linearGradient id="paint33_linear" x1="476.462" y1="323.505" x2="587.723" y2="354.936" gradientUnits="userSpaceOnUse">
<stop stop-color="#29CF95"/>
<stop offset="1" stop-color="#ADFCC7"/>
</linearGradient>
<linearGradient id="paint34_linear" x1="672.919" y1="233.089" x2="773.787" y2="158.765" gradientUnits="userSpaceOnUse">
<stop stop-color="#63EDFB"/>
<stop offset="0.59714" stop-color="#94FFD6"/>
<stop offset="1" stop-color="#94FFD6"/>
</linearGradient>
<linearGradient id="paint35_linear" x1="672.464" y1="194.706" x2="780.53" y2="194.706" gradientUnits="userSpaceOnUse">
<stop stop-color="#25FCBE"/>
<stop offset="0.853142" stop-color="#18FFC4"/>
<stop offset="0.878207" stop-color="#18FFC4"/>
<stop offset="1" stop-color="#18FFC4"/>
</linearGradient>
<linearGradient id="paint36_linear" x1="671.533" y1="201.742" x2="720.066" y2="201.742" gradientUnits="userSpaceOnUse">
<stop stop-color="#18DEDD"/>
<stop offset="0.0285414" stop-color="#18DEDD"/>
<stop offset="1" stop-color="#21EBBB"/>
</linearGradient>
<linearGradient id="paint37_linear" x1="710.574" y1="181.837" x2="778.472" y2="181.837" gradientUnits="userSpaceOnUse">
<stop stop-color="#15E5B4"/>
<stop offset="0.0285414" stop-color="#15E5B4"/>
<stop offset="1" stop-color="#4CF9C8"/>
</linearGradient>
<linearGradient id="paint38_linear" x1="107.184" y1="341.623" x2="416.561" y2="239.467" gradientUnits="userSpaceOnUse">
<stop stop-color="#9132EB"/>
<stop offset="0.68454" stop-color="#C082FF"/>
<stop offset="0.686141" stop-color="#C082FF"/>
<stop offset="1" stop-color="#9B50FA"/>
</linearGradient>
<linearGradient id="paint39_linear" x1="171.386" y1="170.708" x2="455.594" y2="221.391" gradientUnits="userSpaceOnUse">
<stop stop-color="#BBB8FB"/>
<stop offset="0.0644731" stop-color="#BBB8FB"/>
<stop offset="1" stop-color="#6B4DFF"/>
</linearGradient>
</defs>
</svg>
