<svg width="189" height="252" viewBox="0 0 189 252" fill="none" xmlns="http://www.w3.org/2000/svg">
<path fill-rule="evenodd" clip-rule="evenodd" d="M32.7452 16.9159C26.3128 12.8291 21.4397 9.91859 14.8441 6.88102C10.2384 4.75736 5.70756 2.98217 1.27048 1.61776C5.08827 0.542518 8.36215 0.0467052 11.2261 0.00224545C24.3121 -0.205599 34.0742 14.0757 35.3094 17.7939C35.5266 18.1138 35.6535 18.5 35.6535 18.9159V95.9159H63.6535V43.3352C63.5256 42.8952 63.4518 42.2967 63.4674 41.3952L63.4747 40.8985C63.4819 40.3615 63.4753 39.8141 63.4685 39.254C63.4194 35.1862 63.3622 30.4513 68.5311 24.1907C68.8446 23.8137 69.1551 23.466 69.4668 23.1371L69.4669 23.1363C71.303 21.2044 73.1519 20.0507 75.2168 18.7622C77.8015 17.1494 80.7247 15.3253 84.3849 11.4995C81.3875 19.069 76.9314 26.8595 71.7054 34.5644L71.7057 34.5652C69.423 37.9286 67.8501 39.9921 65.581 42.9159H65.7867C70.7522 36.4698 74.2157 31.7512 77.9833 25.1764C80.5069 20.7771 82.6768 16.4215 84.4293 12.1229C85.1618 16.021 85.3654 19.3259 85.1558 22.1825C84.3438 33.3017 73.2729 41.0862 67.6535 43.7054V121.916H145.654L145.653 43.9159C145.653 43.6074 145.793 43.3316 146.013 43.1482L145.98 43.1234L145.932 43.086L146.631 42.5417L146.631 42.5416C150.064 39.8666 152.19 38.2107 155.891 35.6918C155.891 35.6919 155.892 35.692 155.892 35.6921C163.59 30.4564 171.375 25.9905 178.941 22.9834C175.119 26.6485 173.299 29.574 171.69 32.1608C170.404 34.2273 169.252 36.0777 167.323 37.9162C167.322 37.9162 167.322 37.9162 167.322 37.9162C166.993 38.2284 166.646 38.5393 166.269 38.8533C160.015 44.0302 155.28 43.9789 151.213 43.9349C150.682 43.9292 150.163 43.9236 149.653 43.9297L149.654 100.738C149.68 100.695 149.707 100.652 149.733 100.609C149.994 100.193 150.255 99.8074 150.52 99.4399L150.52 99.4391C152.082 97.2795 153.76 95.8894 155.635 94.3369C157.981 92.3936 160.635 90.1958 163.752 85.9159C161.791 93.8177 158.415 102.133 154.264 110.466L154.264 110.467C152.565 113.875 151.331 116.07 149.654 118.965V119.287C153.638 112.362 156.409 107.262 159.233 100.325C161.147 95.628 162.716 91.0218 163.879 86.5278C165.125 90.2932 165.768 93.5415 165.941 96.4005C166.712 109.026 153.821 119.16 149.654 121.09V159.916V160.916C149.654 162.573 148.31 163.916 146.654 163.916H112.654V205.916H172.654V181.916C172.15 175.482 173.099 167.428 178.432 161.942C180.428 159.888 183.033 157.844 186.434 155.802C184.385 159.968 182.571 164.483 180.96 169.292C179.01 175.104 177.835 179.959 176.654 185.834V186.634C177.055 184.635 177.485 182.705 178.114 180.222L178.114 180.221C180.401 171.197 183.263 162.69 186.929 155.421C186.501 160.698 187.08 164.095 187.592 167.098C188.001 169.498 188.367 171.646 188.143 174.302L188.142 174.302C188.104 174.754 188.05 175.217 187.977 175.702C186.732 183.724 183.155 186.827 180.082 189.493C179.659 189.86 179.245 190.219 178.849 190.581L178.482 190.917C177.677 191.658 177.118 192.004 176.654 192.174V205.916V206.916C176.654 208.573 175.31 209.916 173.654 209.916H112.654V249.916C112.654 251.02 111.758 251.916 110.654 251.916C109.549 251.916 108.654 251.02 108.654 249.916V190.958H83.6535C83.4309 190.958 83.2125 190.94 82.9997 190.905C79.4358 191.582 75.1959 191.811 69.133 188.615C68.7 188.385 68.2963 188.152 67.9109 187.914L67.9101 187.914C65.6447 186.51 64.1386 184.935 62.4565 183.175C60.351 180.973 57.9698 178.483 53.4787 175.679C61.5001 177.072 70.0349 179.847 78.6426 183.395L78.6433 183.394C81.8119 184.701 83.9729 185.702 86.5657 186.958H86.9288C80.159 183.694 75.0129 181.391 68.1728 179.16C63.3517 177.586 58.6454 176.349 54.08 175.508C57.7471 173.997 60.9413 173.125 63.7808 172.748C76.0428 171.117 86.8581 182.688 89.4076 186.958H108.654V163.916V162.916C108.654 161.259 109.997 159.916 111.654 159.916H145.654V125.916L66.88 125.916C66.7104 126.414 66.3457 126.995 65.4302 127.875L65.0727 128.219C64.6868 128.593 64.3032 128.984 63.9107 129.383C61.0603 132.286 57.7423 135.664 49.6582 136.411C49.1697 136.455 48.7043 136.48 48.2512 136.491L48.2506 136.491C45.5861 136.551 43.4644 136.053 41.0949 135.496C38.1289 134.8 34.7744 134.013 29.4807 134.114C36.9624 130.904 45.6292 128.572 54.7779 126.847L54.7783 126.846C58.716 126.105 61.2718 125.765 64.8623 125.323C64.8019 125.278 64.7434 125.231 64.6866 125.181C56.7117 126.193 50.9564 127.065 43.6939 129.013C38.7946 130.324 34.1757 131.855 29.8915 133.643C32.1399 130.375 34.3404 127.901 36.5142 126.036C44.7581 118.958 57.6248 121.024 63.6599 123.114C63.6557 123.048 63.6535 122.982 63.6535 122.916V121.916V99.9159H34.6535C32.9967 99.9159 31.6535 98.5727 31.6535 96.9159V95.9159V19.9492C31.1621 19.9884 30.6629 20.039 30.1531 20.0905C26.1057 20.5001 21.3945 20.9769 14.7003 16.3834C14.297 16.1045 13.9231 15.8261 13.5679 15.5448L13.5671 15.5448C11.48 13.8872 10.1669 12.1479 8.70043 10.2053L8.70043 10.2053L8.70042 10.2053C6.86476 7.77376 4.78873 5.02381 0.653503 1.71716C8.45894 4.03175 16.6138 7.77956 24.7517 12.3019L24.7524 12.3015C27.8469 14.0222 29.9112 15.2941 32.4498 16.9159H32.7452ZM145.856 42.9308C153.195 37.2386 158.14 33.5011 165.272 29.4024C169.668 26.8732 174.021 24.6978 178.317 22.9399C174.418 22.2123 171.113 22.0129 168.257 22.2261C153.75 23.3039 144.942 41.8401 145.856 42.9308Z" fill="url(#paint0_linear)"/>
<defs>
<linearGradient id="paint0_linear" x1="110.653" y1="142.416" x2="110.653" y2="-0.0839903" gradientUnits="userSpaceOnUse">
<stop stop-color="#8D71FE"/>
<stop offset="1" stop-color="#CFA7FC"/>
</linearGradient>
</defs>
</svg>
