<svg width="215" height="215" viewBox="0 0 215 215" fill="none" xmlns="http://www.w3.org/2000/svg">
<circle cx="107.5" cy="107.5" r="107.5" fill="#4219EE"/>
<path d="M44.8198 55.6068C50.6777 61.4646 50.6777 70.9621 44.8198 76.82C38.9619 82.6778 29.4645 82.6778 23.6066 76.82C17.7487 70.9621 23.6066 55.6068 23.6066 55.6068C23.6066 55.6068 38.9619 49.7489 44.8198 55.6068Z" fill="white"/>
<path d="M190.516 64.9099C187.588 67.8388 182.839 67.8388 179.91 64.9099C176.981 61.981 176.981 57.2322 179.91 54.3033C182.839 51.3744 190.516 54.3033 190.516 54.3033C190.516 54.3033 193.445 61.981 190.516 64.9099Z" fill="white"/>
<path d="M138.91 56.3031C141.839 59.2321 141.839 63.9808 138.91 66.9097C135.981 69.8387 131.232 69.8387 128.303 66.9097C125.374 63.9808 128.303 56.3031 128.303 56.3031C128.303 56.3031 135.981 53.3742 138.91 56.3031Z" fill="white"/>
<path d="M185.475 160.425C184.108 159.058 184.108 156.842 185.475 155.475C186.842 154.108 189.058 154.108 190.425 155.475C191.791 156.842 190.425 160.425 190.425 160.425C190.425 160.425 186.842 161.791 185.475 160.425Z" fill="white"/>
<path d="M190.425 125.425C189.058 126.791 186.842 126.791 185.475 125.425C184.108 124.058 184.108 121.842 185.475 120.475C186.842 119.108 190.425 120.475 190.425 120.475C190.425 120.475 191.791 124.058 190.425 125.425Z" fill="white"/>
<path d="M23.6065 139.606C29.4644 133.749 38.9619 133.749 44.8197 139.606C50.6776 145.464 50.6776 154.962 44.8197 160.82C38.9619 166.678 23.6065 160.82 23.6065 160.82C23.6065 160.82 17.7487 145.464 23.6065 139.606Z" fill="white"/>
<rect x="24" y="62" width="4" height="89" fill="white"/>
<rect x="188" y="62" width="2" height="57" fill="white"/>
<rect width="1" height="34" transform="matrix(1 0 0 -1 189 157)" fill="white"/>
<rect width="2" height="38" transform="matrix(-4.37114e-08 -1 -1 4.37114e-08 189 161)" fill="white"/>
<rect width="2" height="38" transform="matrix(-4.37114e-08 -1 -1 4.37114e-08 189 122)" fill="white"/>
<rect x="128" y="58" width="2" height="59" transform="rotate(-90 128 58)" fill="white"/>
<rect x="128" y="157" width="4" height="90" transform="rotate(90 128 157)" fill="white"/>
<rect x="128" y="56" width="4" height="90" transform="rotate(90 128 56)" fill="white"/>
<circle cx="63" cy="106" r="8" fill="white"/>
<circle cx="159" cy="87" r="4" fill="white"/>
<circle cx="171" cy="140" r="2" fill="white"/>
<path d="M127 124.249C122.415 129.605 115.604 133 108 133C94.1929 133 83 121.807 83 108C83 94.1929 94.1929 83 108 83C115.604 83 122.415 86.3947 127 91.7512V124.249Z" fill="white"/>
<path d="M108.5 85L122 105.593L108.5 111.161L95 105.593L108.5 85Z" fill="#4219EE"/>
<path d="M108.5 114.212L122 107.882L108.5 130.763L95 107.882L108.5 114.212Z" fill="#4219EE"/>
<path d="M151.376 119C148.697 116.707 147 113.302 147 109.5C147 102.596 152.596 97 159.5 97C166.404 97 172 102.596 172 109.5C172 113.302 170.303 116.707 167.624 119L151.376 119Z" fill="white"/>
<path d="M171 109.75L160.703 116.5L157.919 109.75L160.703 103L171 109.75Z" fill="#4219EE"/>
<path d="M156.394 109.75L159.559 116.5L148.119 109.75L159.559 103L156.394 109.75Z" fill="#4219EE"/>
<path d="M151 136.275C152.146 134.883 153.849 134 155.75 134C159.202 134 162 136.91 162 140.5C162 144.09 159.202 147 155.75 147C153.849 147 152.146 146.117 151 144.725L151 136.275Z" fill="white"/>
<path d="M155.81 146.48L152.3 141.126L155.81 139.678L159.32 141.126L155.81 146.48Z" fill="#4219EE"/>
<path d="M155.81 138.885L152.3 140.531L155.81 134.582L159.32 140.531L155.81 138.885Z" fill="#4219EE"/>
<path fill-rule="evenodd" clip-rule="evenodd" d="M22.5 53H21V54.5V162.14V163.64H22.5H191.967H193.467V162.14V54.5V53H191.967H22.5ZM24 160.64V56H126.278V119.82V120.82V160.64H24ZM129.278 120.82V160.14H149.056V120.82H129.278ZM149.056 118.82H150.056H189.967V56.5H129.278V118.82H149.056ZM151.056 120.82V160.14H189.967V120.82H151.056Z" fill="white"/>
</svg>
