<svg width="215" height="215" viewBox="0 0 215 215" fill="none" xmlns="http://www.w3.org/2000/svg">
<circle cx="107.5" cy="107.5" r="107.5" fill="#3D8CFC"/>
<rect x="102" y="113" width="16" height="12" rx="5" fill="white"/>
<path d="M102.262 138.25C102.12 135.394 104.397 133 107.256 133H112.744C115.603 133 117.88 135.394 117.737 138.25L115.237 188.25C115.104 190.911 112.908 193 110.244 193H109.756C107.092 193 104.895 190.911 104.762 188.25L102.262 138.25Z" fill="white"/>
<path d="M107.928 100.702C109.551 89.2535 107.433 66.7531 70.009 54C73.5778 87.3131 96.0167 102.158 107.928 100.702Z" fill="white"/>
<path d="M111.282 100.737C109.659 89.2887 111.777 66.7883 149.201 54.0352C145.632 87.3483 123.193 102.193 111.282 100.737Z" fill="white"/>
<path d="M107.509 50.5C105.509 57 96.509 66 96.509 66C96.509 66 85.009 57 78.009 55.5C78.009 44.5 88.509 31.5 88.509 31.5C88.509 31.5 109.509 44 107.509 50.5Z" fill="white"/>
<rect x="105" y="126" width="10" height="6" rx="3" fill="white"/>
<rect x="100" y="103" width="20" height="15" rx="5" fill="white"/>
<path d="M111.51 23C111.51 23 131.009 48 131.509 60C129.509 62.5 126.509 63 119.509 70C112.509 77 111.009 86 109.009 86C105.509 76.5 105.009 75.5 99.0097 69C96.5093 65.5 107.509 60 111.009 46C114.509 32 111.51 23 111.51 23Z" fill="white"/>
</svg>
