<svg width="245" height="228" viewBox="0 0 245 228" fill="none" xmlns="http://www.w3.org/2000/svg">
<path fill-rule="evenodd" clip-rule="evenodd" d="M204.776 96.9457L92.3312 8.14574C92.1341 7.40168 91.8415 6.6077 91.5506 5.81826L91.5506 5.8181C90.1759 2.0871 88.8385 -1.54248 97.7837 0.678462C101.634 3.32598 125.011 21.0843 151.134 40.9279L151.138 40.9311C172.805 57.3903 196.36 75.2835 212.227 87.1783C232.47 97.1223 265.303 122.104 226.374 158.121C206.392 277.002 -115.344 231.183 44.284 107.679C-96.1989 221.26 183.717 265.851 222.367 158.867C223.045 152.915 221.621 144.227 212.227 140.673C198.002 135.291 202.744 96.9457 204.776 96.9457ZM205.784 126.179C201.284 102.179 210.283 77.1793 235.284 107.179C239.45 112.179 246.284 125.179 235.284 129.179C232.95 126.179 227.384 122.379 223.784 131.179C221.117 124.679 212.584 116.179 205.784 126.179ZM78.7837 113.679L84.7837 160.179L126.784 153.679L137.284 126.679L78.7837 113.679ZM86.7837 168.179L132.784 160.179L143.784 129.179L163.284 183.179L86.7837 168.179Z" fill="white"/>
</svg>
