<svg width="182" height="248" viewBox="0 0 182 248" fill="none" xmlns="http://www.w3.org/2000/svg">
<path fill-rule="evenodd" clip-rule="evenodd" d="M9.82281 88.5014C4.96826 51.6195 29.2707 24.2474 42.0288 15.1715C37.8237 32.2664 64.1861 55.794 77.8929 65.421C107.382 92.0439 101.723 107.797 94.0701 113.401C120.92 97.2291 145.972 119.133 155.295 132.393C190.754 174.349 165.405 204.249 159.198 211.572C159.026 211.774 158.87 211.959 158.729 212.127C161.586 194.415 143.586 179.256 130.993 181.484C89.22 188.874 77.2871 156.424 76.1787 136.106C33.6205 202.91 89.7008 232.592 94.8829 233.551C100.157 234.527 103.28 236.57 98.944 238.252C36.3541 216.505 52.5031 162.966 71.9224 133.624C33.3707 145.89 15.6835 133.027 9.82281 88.5014ZM81.7961 121.895C60.3489 112.211 49.8203 90.9696 47.1064 80.5681C66.4023 119.886 83.0222 119.716 85.0051 119.455C113.08 119.828 124.292 133.36 127.94 137.764L127.941 137.765C128.279 138.172 128.552 138.502 128.767 138.735C111.954 121.327 90.3761 119.592 81.7961 121.895ZM128.917 138.891C128.867 138.839 128.817 138.787 128.767 138.735C128.821 138.793 128.871 138.845 128.917 138.891Z" fill="white"/>
</svg>
