<svg width="1440" height="846" viewBox="0 0 1440 846" fill="none" xmlns="http://www.w3.org/2000/svg">
<path opacity="0.8" d="M1001.78 284.381C1158.58 151.64 1338.34 107.502 1442.78 123.649C1482.94 160.749 1539.17 174.256 1442.78 161.15C1343.29 147.623 1201.97 145.737 1001.78 284.381C965.185 315.359 929.842 351.162 897 392.151C818.31 490.358 666.101 555.048 503.159 599.075C306.576 676.907 97.5244 726.22 -23 741.151V690.75C94.6034 675.21 306.683 652.164 503.159 599.075C642.796 543.79 776.143 474.114 867 392.151C914.655 349.16 959.527 313.641 1001.78 284.381Z" fill="url(#paint0_linear)"/>
<path opacity="0.8" d="M995.678 179.316C1137.33 9.37409 1318.96 68.9053 1450.23 57.1515C1500.73 80.3978 1534.86 64.5003 1428.27 75.6586C1321.99 86.7857 1176.12 51.0717 995.678 179.316C983.116 194.386 970.869 211.261 959 230.15C882.163 352.432 662.381 508.14 444.869 628.019C237.345 754.941 23.0698 850.81 -57.5 835.651L-30.0001 814.15C56.7376 814.15 249.892 735.479 444.869 628.019C606.959 528.885 764.93 410.808 851.856 311.894C901.965 254.875 949.932 211.827 995.678 179.316Z" fill="url(#paint1_linear)"/>
<defs>
<linearGradient id="paint0_linear" x1="1398.29" y1="147.258" x2="127.041" y2="755.327" gradientUnits="userSpaceOnUse">
<stop stop-color="#72FA8D"/>
<stop offset="0.515625" stop-color="#BCFB81" stop-opacity="0.15"/>
<stop offset="1" stop-color="#BCFB81"/>
</linearGradient>
<linearGradient id="paint1_linear" x1="1396.69" y1="-18.9046" x2="301.514" y2="990.69" gradientUnits="userSpaceOnUse">
<stop stop-color="#BCFB81"/>
<stop offset="0.489583" stop-color="#DBFB81" stop-opacity="0.15"/>
<stop offset="1" stop-color="#DBFB81"/>
</linearGradient>
</defs>
</svg>
