<svg width="25" height="25" viewBox="0 0 25 25" fill="none" xmlns="http://www.w3.org/2000/svg">
<path fill-rule="evenodd" clip-rule="evenodd" d="M10.7685 11.8684L10.7687 11.8618C10.7746 11.497 10.5109 11.2939 10.3 11.2939C10.1004 11.2939 9.83145 11.4873 9.83145 11.875C9.83145 12.2574 10.108 12.456 10.3 12.456C10.4996 12.456 10.7685 12.2627 10.7685 11.875V11.8684ZM11.575 11.875C11.575 12.6375 11.0125 13.2625 10.3 13.2625C9.59999 13.2625 9.02499 12.6375 9.02499 11.875C9.02499 11.1125 9.58749 10.4875 10.3 10.4875C11.0125 10.4875 11.5875 11.1125 11.575 11.875ZM14.8625 11.2939C14.6629 11.2939 14.3939 11.4873 14.3939 11.875C14.3939 12.2574 14.6705 12.456 14.8625 12.456C15.0621 12.456 15.331 12.2627 15.331 11.875C15.331 11.4873 15.0621 11.2939 14.8625 11.2939ZM13.5875 11.875C13.5875 11.1125 14.15 10.4875 14.8625 10.4875C15.575 10.4875 16.1375 11.1125 16.1375 11.875C16.1375 12.6375 15.575 13.2625 14.8625 13.2625C14.1625 13.2625 13.5875 12.6375 13.5875 11.875Z" fill="url(#paint0_linear)"/>
<path fill-rule="evenodd" clip-rule="evenodd" d="M19.3 21.225L20.8125 22.625L23.5 25V2.575C23.5 1.15 22.35 0 20.9375 0H4.1875C2.775 0 1.625 1.15 1.625 2.575V19.475C1.625 20.9 2.775 22.05 4.1875 22.05H18.3625L17.7 19.7375L19.3 21.225ZM17.2926 21.2435L16.1266 17.1736L19.8491 20.6344L21.3535 22.0269L22.6935 23.2111V2.575C22.6935 1.59283 21.9021 0.806452 20.9375 0.806452H4.1875C3.22294 0.806452 2.43145 1.59283 2.43145 2.575V19.475C2.43145 20.4572 3.22294 21.2435 4.1875 21.2435H17.2926ZM17.55 13.825C17.0375 14.1625 16.55 14.4 16.1125 14.5625C15.7925 14.6969 15.4791 14.8083 15.1706 14.8985C14.8764 14.9845 14.5867 15.0512 14.3 15.1C14.2389 15.1114 14.1782 15.1222 14.1176 15.1321C13.0291 15.3117 12.0269 15.2579 11.159 15.105C11.1267 15.0993 11.0945 15.0935 11.0625 15.0875C10.7247 15.0223 10.4093 14.9431 10.1165 14.8564C9.79167 14.7603 9.49451 14.6552 9.225 14.55C8.9375 14.4375 8.625 14.3 8.3125 14.125C8.29375 14.1125 8.275 14.1031 8.25625 14.0938C8.2375 14.0844 8.21875 14.075 8.2 14.0625C8.175 14.05 8.1625 14.0375 8.15 14.025C7.925 13.9 7.8 13.8125 7.8 13.8125C7.8 13.8125 7.87683 13.9405 8.04824 14.1268C8.05741 14.1367 8.06686 14.1469 8.07658 14.1572C8.08806 14.1693 8.09992 14.1817 8.11217 14.1943C8.11695 14.1992 8.1218 14.2041 8.12671 14.2091C8.15134 14.2341 8.17746 14.2598 8.20511 14.2861C8.20882 14.2896 8.21256 14.2932 8.21633 14.2967C8.4199 14.4888 8.70412 14.7121 9.08194 14.9156C9.1212 14.9367 9.1618 14.9578 9.20309 14.9785C9.43219 15.0931 9.69283 15.1993 9.9875 15.2875C9.90997 15.3857 9.82869 15.4877 9.74854 15.5876C9.64298 15.7192 9.53937 15.8474 9.4488 15.9589C9.27552 16.1723 9.15 16.325 9.15 16.325C6.3875 16.2375 5.3375 14.425 5.3375 14.425C5.3375 10.8135 6.78669 7.81582 7.08442 7.23807C7.09038 7.22651 7.09587 7.21592 7.10089 7.20631C7.12454 7.161 7.1375 7.1375 7.1375 7.1375C7.1591 7.1213 7.18068 7.10531 7.20225 7.08951C7.45003 6.90799 7.69578 6.75251 7.93523 6.61933C7.93865 6.61743 7.94207 6.61554 7.94548 6.61365C9.41795 5.79802 10.65 5.825 10.65 5.825L10.775 5.975C10.7315 5.98756 10.6885 6.00026 10.6459 6.01306C10.5228 6.05009 10.4034 6.08809 10.2878 6.12684C9.32765 6.44862 8.62588 6.82165 8.16501 7.11342L8.16287 7.11478C7.95884 7.24404 7.80217 7.35729 7.69132 7.44297C7.57297 7.53446 7.50687 7.59451 7.49117 7.60906C7.48872 7.61134 7.4875 7.6125 7.4875 7.6125C7.4875 7.6125 7.48899 7.61169 7.49194 7.61009C7.5124 7.59905 7.6029 7.55056 7.75179 7.47628C7.87295 7.41584 8.03278 7.33832 8.225 7.25C9.23574 6.80603 10.0894 6.60477 10.635 6.51674C10.7423 6.49943 10.8377 6.4865 10.92 6.47697C10.973 6.47082 11.0206 6.46609 11.0625 6.4625C11.072 6.46091 11.0814 6.45932 11.0905 6.45776C11.1536 6.44703 11.2095 6.4375 11.275 6.4375C11.553 6.40104 11.8444 6.37454 12.146 6.36045C12.4502 6.34623 12.7649 6.34463 13.0869 6.35812C13.3211 6.36794 13.5592 6.38575 13.8 6.4125C13.9682 6.43197 14.1381 6.4557 14.3096 6.48412C14.4193 6.5023 14.5296 6.5224 14.6405 6.54453C14.921 6.60047 15.2054 6.66938 15.4928 6.75307C15.8658 6.8617 16.2441 6.99523 16.6259 7.15759C16.8965 7.27266 17.1688 7.40223 17.4424 7.54768C17.4824 7.56895 17.5225 7.59055 17.5625 7.6125C17.5625 7.6125 17.5256 7.57745 17.4507 7.51621C17.1806 7.29542 16.4165 6.73417 15.1078 6.24741C14.9561 6.19099 14.797 6.13557 14.6306 6.08179C14.5713 6.06264 14.5111 6.0437 14.45 6.025L14.625 5.825C14.625 5.825 15.0503 5.81569 15.6998 5.97343C16.0613 6.06122 16.4922 6.20076 16.9579 6.42245C17.2641 6.56824 17.5854 6.74955 17.9119 6.97504C17.9626 7.0101 18.0135 7.04622 18.0645 7.08345C18.0671 7.0854 18.07 7.08748 18.0727 7.08943C18.0943 7.10526 18.1159 7.12128 18.1375 7.1375C18.1375 7.1375 19.9375 10.4 19.9375 14.425C19.9375 14.425 18.875 16.2375 16.1125 16.325C16.1125 16.325 15.996 16.1859 15.8322 15.9866C15.745 15.8806 15.6444 15.7575 15.5407 15.6292C15.4564 15.5249 15.3701 15.4172 15.2875 15.3125C15.5846 15.2286 15.8484 15.1261 16.0812 15.0146C16.1391 14.9869 16.195 14.9587 16.249 14.93C16.2539 14.9274 16.2587 14.9248 16.2636 14.9222C17.18 14.4318 17.55 13.825 17.55 13.825ZM14.6835 15.8489C14.8677 16.0814 15.065 16.3234 15.2178 16.5092C15.2985 16.6073 15.3674 16.6904 15.4161 16.749L15.4732 16.8176L16.138 17.131C17.705 17.0814 18.8198 16.538 19.5487 15.9844C19.9098 15.7101 20.1722 15.4366 20.3478 15.2259C20.4357 15.1204 20.5024 15.03 20.5494 14.9623C20.5729 14.9283 20.5915 14.9 20.6054 14.8782C20.6123 14.8672 20.6181 14.8579 20.6227 14.8503L20.6288 14.8402L20.6312 14.8362L20.6323 14.8344C20.6323 14.8344 20.6332 14.8328 19.9375 14.425L20.6332 14.8328L20.744 14.6439V14.425C20.744 12.2971 20.2692 10.3842 19.8007 9.01143C19.5658 8.32279 19.3303 7.76398 19.1521 7.37457C19.0629 7.17972 18.9879 7.02683 18.9341 6.92084C18.9072 6.86784 18.8857 6.82652 18.8703 6.7975L18.852 6.76327L18.8465 6.75321L18.8447 6.74996L18.8441 6.74879C18.8441 6.74879 18.8436 6.74792 18.1375 7.1375L18.8441 6.74879L18.7599 6.59626L18.6214 6.49234C17.6189 5.74047 16.6362 5.37181 15.8974 5.19154C15.5281 5.10142 15.2185 5.05804 14.9955 5.03726C14.8839 5.02686 14.7936 5.02209 14.7279 5.01999C14.695 5.01893 14.6683 5.01855 14.6481 5.01846L14.6227 5.01851L14.6137 5.01862L14.6102 5.01868L14.6087 5.01871C14.6087 5.01871 14.6075 5.01874 14.6174 5.47766L14.6073 5.01874L14.2521 5.02652L13.7531 5.59673C12.9641 5.5189 12.205 5.5293 11.5111 5.59856L11.0346 5.02678L10.6677 5.01874L10.6558 5.56223C10.6676 5.01879 10.6677 5.01874 10.6677 5.01874L10.6648 5.01868L10.6613 5.01862L10.6523 5.01851L10.6269 5.01846C10.6067 5.01855 10.58 5.01893 10.5471 5.01999C10.4814 5.02209 10.3911 5.02686 10.2795 5.03726C10.0565 5.05804 9.74686 5.10142 9.37757 5.19154C8.63882 5.37181 7.65612 5.74047 6.65363 6.49234L6.51506 6.59626L6.43139 6.74792L6.93451 7.02551C6.43137 6.74796 6.43139 6.74792 6.43139 6.74792L6.43026 6.74996L6.42849 6.75321L6.42302 6.76327L6.40471 6.7975C6.38933 6.82652 6.36776 6.86784 6.34088 6.92084C6.28714 7.02683 6.21211 7.17972 6.12294 7.37457C5.94473 7.76398 5.70925 8.32279 5.47426 9.01143C5.00583 10.3842 4.53105 12.2971 4.53105 14.425V14.6417L4.63968 14.8292L5.3375 14.425C4.63968 14.8292 4.63968 14.8292 4.63968 14.8292L4.64062 14.8309L4.64166 14.8326L4.64406 14.8367L4.65011 14.8469C4.65472 14.8545 4.66046 14.8638 4.66736 14.8748C4.68116 14.8967 4.69962 14.9252 4.72294 14.9592C4.76954 15.0271 4.83577 15.1177 4.92316 15.2234C5.09769 15.4345 5.35865 15.7085 5.71842 15.9832C6.44493 16.5379 7.55731 17.0814 9.12447 17.131L9.52097 17.1436L9.77292 16.8372L9.85228 16.7404C9.90197 16.6796 9.97209 16.5938 10.054 16.4929C10.2114 16.2993 10.4137 16.0487 10.5989 15.8145C10.7004 15.8373 10.804 15.859 10.9097 15.8794L10.9145 15.8803C11.9284 16.0695 13.1285 16.1392 14.442 15.8939C14.5224 15.8801 14.6029 15.8651 14.6835 15.8489Z" fill="url(#paint1_linear)"/>
<defs>
<linearGradient id="paint0_linear" x1="12.5812" y1="10.4875" x2="12.5812" y2="13.2625" gradientUnits="userSpaceOnUse">
<stop stop-color="#7A34F8"/>
<stop offset="1" stop-color="#2794FF"/>
</linearGradient>
<linearGradient id="paint1_linear" x1="12.5625" y1="0" x2="12.5625" y2="25" gradientUnits="userSpaceOnUse">
<stop stop-color="#7A34F8"/>
<stop offset="1" stop-color="#2794FF"/>
</linearGradient>
</defs>
</svg>
