<svg width="25" height="25" viewBox="0 0 25 25" fill="none" xmlns="http://www.w3.org/2000/svg">
<path fill-rule="evenodd" clip-rule="evenodd" d="M21.606 6.83939L21.9684 6.57729C22.1646 6.43535 22.3551 6.28625 22.5396 6.13036C22.4097 6.15043 22.2793 6.16819 22.1485 6.18362L20.9239 5.78548L21.6398 4.69076C21.805 4.59189 21.9625 4.48266 22.1117 4.36404C21.8141 4.44917 21.5126 4.5219 21.208 4.58195L20.7702 4.66824L20.4645 4.34321C19.8127 3.65006 18.9505 3.19108 18.0115 3.03728C17.0725 2.88349 16.109 3.04345 15.2701 3.49243C14.4312 3.94141 13.7636 4.65436 13.3707 5.52096C12.9778 6.38757 12.8814 7.35951 13.0966 8.28638L13.3383 9.32772L12.2706 9.27416C10.1184 9.1662 8.01303 8.60689 6.09103 7.63253C4.56217 6.85747 3.17655 5.83356 1.98955 4.6055C1.81667 5.27458 1.80511 5.98111 1.96383 6.66546C2.2125 7.73768 2.86049 8.67481 3.77585 9.28605L6.11051 10.8451L3.30438 10.7628C2.85341 10.7496 2.40712 10.6847 1.974 10.5704C2.13499 11.1318 2.4092 11.6588 2.78437 12.1173C3.41651 12.8896 5.13218 14.39 6.11051 14.5876L5.32722 15.1857C4.93346 15.2932 4.53096 15.3592 4.12617 15.3838C4.39341 15.7706 4.72346 16.1136 5.10531 16.3974C5.82958 16.9358 6.70397 17.2343 7.60626 17.2514L9.86736 17.2942L8.08937 18.6918C6.94256 19.5932 5.62928 20.2596 4.22465 20.653C3.899 20.7442 3.56991 20.8204 3.23845 20.8813C4.71493 21.4075 6.27806 21.6793 7.86094 21.6773L7.862 22.4837C5.6768 22.4866 3.52714 21.9964 1.57004 21.059C1.031 20.8009 0.50655 20.5088 0 20.1837C0.578913 20.2535 1.1613 20.2739 1.74094 20.2451C2.50593 20.2073 3.26612 20.084 4.00716 19.8765C4.91267 19.6229 5.77725 19.2469 6.57748 18.7604C6.92835 18.5471 7.26685 18.3125 7.591 18.0577C7.19624 18.0503 6.80599 17.9974 6.42751 17.9015C5.77977 17.7375 5.16651 17.4477 4.62421 17.0446C4.01952 16.5951 3.52433 16.0206 3.16972 15.3644C3.02047 15.0882 2.89612 14.7976 2.799 14.4957C2.94275 14.5234 3.08733 14.5449 3.23234 14.5601C3.38509 14.5762 3.53832 14.5853 3.69155 14.5876C4.17065 14.5947 4.66094 14.5876 5.10531 14.5876C4.52404 14.4702 3.98176 14.074 3.48133 13.7722C2.98242 13.4714 2.53472 13.0855 2.16028 12.628C1.59679 11.9395 1.22526 11.1205 1.07518 10.2535C1.0255 9.96649 1.00008 9.67423 1 9.37972V9.31472C1.03981 9.33693 1.07989 9.35859 1.12022 9.37969C1.3286 9.4887 1.54382 9.58287 1.76415 9.66171C1.78173 9.668 1.79935 9.6742 1.817 9.68029C2.30214 9.84787 2.81151 9.94159 3.328 9.95672C2.91216 9.67904 2.54283 9.34467 2.22881 8.96632C1.72274 8.35659 1.36029 7.63264 1.17823 6.84766C0.950765 5.8669 1.01809 4.84773 1.36145 3.91488C1.46344 3.63779 1.58979 3.36831 1.74 3.10972C1.9217 3.33325 2.10974 3.55104 2.30384 3.76285C3.4855 5.05235 4.89147 6.12024 6.45568 6.91322C8.02661 7.70961 9.72685 8.21337 11.4733 8.40242C11.7515 8.43254 12.0308 8.45467 12.311 8.46872C12.2485 8.19955 12.2082 7.92718 12.1897 7.65422C12.1328 6.8121 12.2842 5.96439 12.6362 5.18796C13.1023 4.15986 13.8943 3.31404 14.8895 2.7814C15.8848 2.24876 17.0279 2.05898 18.1419 2.24143C19.2559 2.42389 20.2787 2.9684 21.052 3.79072C21.7829 3.64664 22.4947 3.42377 23.1751 3.12678C23.5641 2.95702 23.9428 2.76304 24.309 2.54572C24.17 2.97705 23.9758 3.38471 23.7335 3.75969C23.6068 3.95584 23.4669 4.14305 23.3149 4.32004C22.9573 4.73646 22.5326 5.09627 22.054 5.38272C22.5793 5.32075 23.0982 5.2182 23.6062 5.07633C23.6574 5.06205 23.7084 5.04736 23.7593 5.03228C24.1817 4.90719 24.5962 4.75476 25 4.57572C24.7147 5.00243 24.3988 5.40668 24.0553 5.78548C23.5697 6.32091 23.0289 6.80547 22.441 7.23072C22.456 7.45072 22.456 7.67172 22.456 7.89372C22.456 14.6717 17.296 22.4877 7.862 22.4877V22.4837V21.6813C16.758 21.6813 21.6495 14.3249 21.6495 7.89372C21.6495 7.66705 21.6492 7.47359 21.6364 7.28558L21.606 6.83939Z" fill="url(#paint0_linear)"/>
<defs>
<linearGradient id="paint0_linear" x1="12.5" y1="2.17392" x2="12.5" y2="22.4877" gradientUnits="userSpaceOnUse">
<stop stop-color="#7A34F8"/>
<stop offset="1" stop-color="#2794FF"/>
</linearGradient>
</defs>
</svg>
