<svg width="25" height="25" viewBox="0 0 25 25" fill="none" xmlns="http://www.w3.org/2000/svg">
<path d="M7.76471 1.0674C8.99179 1.01348 9.38284 1 12.5067 1C15.6306 1 16.0217 1.01348 17.2533 1.07189C18.4759 1.12581 19.3119 1.3235 20.0446 1.60656C20.7997 1.89861 21.4424 2.294 22.0807 2.93202C22.7235 3.57003 23.1145 4.21254 23.3977 4.97636C23.6809 5.70424 23.8786 6.54444 23.9326 7.76656C23.9865 8.99316 24 9.38406 24 12.5067C24 15.6294 23.9865 16.0203 23.9326 17.2469C23.8786 18.469 23.6809 19.3047 23.3977 20.0371C23.1055 20.792 22.71 21.4345 22.0717 22.0725C21.4335 22.7105 20.7907 23.1059 20.0356 23.3979C19.3074 23.681 18.4669 23.8787 17.2443 23.9326C16.0172 23.9865 15.6261 24 12.5022 24C9.37835 24 8.9873 23.9865 7.76021 23.9326C6.53762 23.8787 5.70158 23.681 4.96893 23.3979C4.2138 23.1059 3.57104 22.7105 2.93277 22.0725C2.29001 21.4345 1.89896 20.792 1.60231 20.0326C1.31913 19.3047 1.12136 18.4645 1.06742 17.2424C1.01348 16.0158 1 15.6249 1 12.5022C1 9.37957 1.01348 8.98867 1.06742 7.75757C1.12136 6.53546 1.31913 5.69975 1.60231 4.96738C1.89896 4.21254 2.29001 3.57003 2.93277 2.93202C3.57104 2.28951 4.2138 1.89861 4.97342 1.60207C5.70158 1.31901 6.54211 1.12131 7.76471 1.0674Z" stroke="url(#paint0_linear)"/>
<path d="M6.5791 12.5C6.5791 9.23122 9.23122 6.5791 12.5 6.5791C15.7688 6.5791 18.4209 9.23122 18.4209 12.5C18.4209 15.7688 15.7688 18.4209 12.5 18.4209C9.23122 18.4209 6.5791 15.7688 6.5791 12.5Z" stroke="url(#paint1_linear)"/>
<path d="M20.1738 5.82523C20.1738 6.37811 19.7249 6.82425 19.1748 6.82425C18.6219 6.82425 18.1758 6.37534 18.1758 5.82523C18.1758 5.27235 18.6247 4.8262 19.1748 4.8262C19.7239 4.8262 20.1738 5.27617 20.1738 5.82523Z" stroke="url(#paint2_linear)"/>
<defs>
<linearGradient id="paint0_linear" x1="12.5" y1="1" x2="12.5" y2="24" gradientUnits="userSpaceOnUse">
<stop stop-color="#7935F8"/>
<stop offset="1" stop-color="#3287FE"/>
</linearGradient>
<linearGradient id="paint1_linear" x1="12.5" y1="6.0791" x2="12.5" y2="18.9209" gradientUnits="userSpaceOnUse">
<stop stop-color="#7935F8"/>
<stop offset="1" stop-color="#3287FE"/>
</linearGradient>
<linearGradient id="paint2_linear" x1="19.1748" y1="4.3262" x2="19.1748" y2="7.32425" gradientUnits="userSpaceOnUse">
<stop stop-color="#7935F8"/>
<stop offset="1" stop-color="#3287FE"/>
</linearGradient>
</defs>
</svg>
